<svg width="20" height="20" viewBox="0 0 20 20" fill="none" xmlns="http://www.w3.org/2000/svg">
<path fill-rule="evenodd" clip-rule="evenodd" d="M10.0004 19.6004C12.5465 19.6004 14.9883 18.589 16.7886 16.7886C18.589 14.9883 19.6004 12.5465 19.6004 10.0004C19.6004 7.45431 18.589 5.01252 16.7886 3.21217C14.9883 1.41182 12.5465 0.400391 10.0004 0.400391C7.45431 0.400391 5.01252 1.41182 3.21217 3.21217C1.41182 5.01252 0.400391 7.45431 0.400391 10.0004C0.400391 12.5465 1.41182 14.9883 3.21217 16.7886C5.01252 18.589 7.45431 19.6004 10.0004 19.6004ZM3.19879 7.63279C3.64434 6.35685 4.43933 5.23172 5.49319 4.38559C5.81479 4.87639 6.36919 5.20039 7.00039 5.20039C7.47778 5.20039 7.93562 5.39003 8.27318 5.7276C8.61075 6.06516 8.80039 6.523 8.80039 7.00039V7.60039C8.80039 8.23691 9.05325 8.84736 9.50333 9.29745C9.95342 9.74753 10.5639 10.0004 11.2004 10.0004C11.8369 10.0004 12.4474 9.74753 12.8974 9.29745C13.3475 8.84736 13.6004 8.23691 13.6004 7.60039C13.6002 7.0633 13.7802 6.54166 14.1115 6.11895C14.4428 5.69624 14.9064 5.39689 15.428 5.26879C16.5732 6.57879 17.2031 8.26042 17.2004 10.0004C17.2004 10.4084 17.1668 10.8104 17.1008 11.2004H16.0004C15.3639 11.2004 14.7534 11.4532 14.3033 11.9033C13.8532 12.3534 13.6004 12.9639 13.6004 13.6004V16.2368C12.5063 16.8698 11.2644 17.2022 10.0004 17.2004V14.8004C10.0004 14.1639 9.74753 13.5534 9.29745 13.1033C8.84736 12.6532 8.23691 12.4004 7.60039 12.4004C6.96387 12.4004 6.35342 12.1475 5.90333 11.6974C5.45325 11.2474 5.20039 10.6369 5.20039 10.0004C5.2006 9.43279 4.99964 8.88348 4.63319 8.45002C4.26674 8.01657 3.75852 7.72701 3.19879 7.63279Z" fill="#DBDBDB"/>
</svg>
