<svg width="240" height="240" viewBox="0 0 240 240" fill="none" xmlns="http://www.w3.org/2000/svg">
<rect width="240" height="240" fill="#FFCB77"/>
<path d="M113.25 93C113.25 98.3706 111.117 103.521 107.319 107.319C103.521 111.117 98.3706 113.25 93 113.25C87.6294 113.25 82.4787 111.117 78.6811 107.319C74.8835 103.521 72.75 98.3706 72.75 93C72.75 87.6294 74.8835 82.4787 78.6811 78.6811C82.4787 74.8835 87.6294 72.75 93 72.75C98.3706 72.75 103.521 74.8835 107.319 78.6811C111.117 82.4787 113.25 87.6294 113.25 93ZM167.25 93C167.25 95.6593 166.726 98.2925 165.709 100.749C164.691 103.206 163.199 105.439 161.319 107.319C159.439 109.199 157.206 110.691 154.749 111.709C152.292 112.726 149.659 113.25 147 113.25C144.341 113.25 141.708 112.726 139.251 111.709C136.794 110.691 134.561 109.199 132.681 107.319C130.801 105.439 129.309 103.206 128.291 100.749C127.274 98.2925 126.75 95.6593 126.75 93C126.75 87.6294 128.883 82.4787 132.681 78.6811C136.479 74.8835 141.629 72.75 147 72.75C152.371 72.75 157.521 74.8835 161.319 78.6811C165.117 82.4787 167.25 87.6294 167.25 93ZM139.778 167.25C140.088 165.043 140.25 162.795 140.25 160.5C140.266 149.895 136.698 139.595 130.125 131.272C135.256 128.31 141.076 126.751 147 126.751C152.924 126.751 158.744 128.31 163.875 131.272C169.005 134.234 173.266 138.495 176.228 143.625C179.19 148.756 180.75 154.576 180.75 160.5V167.25H139.778ZM93 126.75C101.951 126.75 110.535 130.306 116.865 136.635C123.194 142.965 126.75 151.549 126.75 160.5V167.25H59.25V160.5C59.25 151.549 62.8058 142.965 69.1351 136.635C75.4645 130.306 84.0489 126.75 93 126.75Z" fill="white"/>
</svg>
