<svg width="240" height="240" viewBox="0 0 240 240" fill="none" xmlns="http://www.w3.org/2000/svg">
<rect width="240" height="240" fill="#FE6D73"/>
<path fill-rule="evenodd" clip-rule="evenodd" d="M120 113.25C125.371 113.25 130.521 111.117 134.319 107.319C138.117 103.521 140.25 98.3706 140.25 93C140.25 87.6294 138.117 82.4787 134.319 78.6811C130.521 74.8835 125.371 72.75 120 72.75C114.629 72.75 109.479 74.8835 105.681 78.6811C101.883 82.4787 99.75 87.6294 99.75 93C99.75 98.3706 101.883 103.521 105.681 107.319C109.479 111.117 114.629 113.25 120 113.25ZM72.75 174C72.75 167.795 73.9722 161.651 76.3467 155.918C78.7212 150.186 82.2016 144.977 86.5892 140.589C90.9768 136.202 96.1856 132.721 101.918 130.347C107.651 127.972 113.795 126.75 120 126.75C126.205 126.75 132.349 127.972 138.082 130.347C143.814 132.721 149.023 136.202 153.411 140.589C157.798 144.977 161.279 150.186 163.653 155.918C166.028 161.651 167.25 167.795 167.25 174H72.75Z" fill="white"/>
</svg>
