<svg width="22" height="18" viewBox="0 0 22 18" fill="none" xmlns="http://www.w3.org/2000/svg">
<path d="M9.79922 4.19961C9.79922 5.15439 9.41993 6.07006 8.7448 6.74519C8.06967 7.42032 7.154 7.79961 6.19922 7.79961C5.24444 7.79961 4.32877 7.42032 3.65363 6.74519C2.9785 6.07006 2.59922 5.15439 2.59922 4.19961C2.59922 3.24483 2.9785 2.32916 3.65363 1.65402C4.32877 0.978894 5.24444 0.599609 6.19922 0.599609C7.154 0.599609 8.06967 0.978894 8.7448 1.65402C9.41993 2.32916 9.79922 3.24483 9.79922 4.19961ZM19.3992 4.19961C19.3992 4.67237 19.3061 5.1405 19.1252 5.57727C18.9443 6.01404 18.6791 6.4109 18.3448 6.74519C18.0105 7.07948 17.6136 7.34466 17.1769 7.52558C16.7401 7.70649 16.272 7.79961 15.7992 7.79961C15.3265 7.79961 14.8583 7.70649 14.4216 7.52558C13.9848 7.34466 13.5879 7.07948 13.2536 6.74519C12.9193 6.4109 12.6542 6.01404 12.4733 5.57727C12.2923 5.1405 12.1992 4.67237 12.1992 4.19961C12.1992 3.24483 12.5785 2.32916 13.2536 1.65402C13.9288 0.978894 14.8444 0.599609 15.7992 0.599609C16.754 0.599609 17.6697 0.978894 18.3448 1.65402C19.0199 2.32916 19.3992 3.24483 19.3992 4.19961ZM14.5152 17.3996C14.5704 17.0072 14.5992 16.6076 14.5992 16.1996C14.602 14.3142 13.9677 12.4832 12.7992 11.0036C13.7113 10.477 14.746 10.1998 15.7992 10.1998C16.8524 10.1998 17.887 10.477 18.7992 11.0036C19.7113 11.5302 20.4687 12.2876 20.9953 13.1997C21.5219 14.1118 21.7992 15.1464 21.7992 16.1996V17.3996H14.5152ZM6.19922 10.1996C7.79052 10.1996 9.31664 10.8317 10.4419 11.957C11.5671 13.0822 12.1992 14.6083 12.1992 16.1996V17.3996H0.199219V16.1996C0.199219 14.6083 0.83136 13.0822 1.95658 11.957C3.0818 10.8317 4.60792 10.1996 6.19922 10.1996Z" fill="#DBDBDB"/>
</svg>
