<svg width="87" height="32" viewBox="0 0 87 32" fill="none" xmlns="http://www.w3.org/2000/svg">
<path d="M31.749 19.3008V22.6371H35.48V32.0003H39.749V22.6371H43.4799V19.3008H31.749Z" fill="#1D1D1D"/>
<path d="M48.6094 28.7716V27.1214H53.9547V24.0362H48.6094V22.5295H54.7081V19.3008H44.4121V32.0003H54.9233V28.7716H48.6094Z" fill="#1D1D1D"/>
<path d="M65.9009 31.9996H70.3135L64.7529 19.3359H60.5556L54.9951 31.9996H59.3359L60.1969 29.7754H65.0041L65.9009 31.9996ZM61.4166 26.6902L62.6364 23.4974L63.8561 26.6902H61.4166Z" fill="#1D1D1D"/>
<path d="M86.0271 32.0003L85.9913 19.3008H82.4756L78.4576 26.081L74.3321 19.3008H70.8164V32.0003H74.7267V26.4039L77.4532 30.8523H79.3545L82.1168 26.2245L82.1527 32.0003H86.0271Z" fill="#1D1D1D"/>
<path d="M8.21523 1.83008V6.31438H4.26905V1.83008H0V14.4937H4.26905V9.83006H8.21523V14.4937H12.4843V1.83008H8.21523Z" fill="#1D1D1D"/>
<path d="M18.583 11.265V9.61482H23.9283V6.52962H18.583V5.0229H24.6817V1.83008H14.3857V14.4937H24.8969V11.265H18.583Z" fill="#1D1D1D"/>
<path d="M15.2107 31.9644L15.1749 19.3008H11.6592L7.64124 26.0452L3.51569 19.3008H0V31.9644H3.87443V26.368L6.63676 30.8165H8.5381L11.3004 26.1887V31.9644H15.2107Z" fill="#1D1D1D"/>
<path d="M29.4168 19.3008H25.2913L22.6725 23.6775L20.0895 19.3008H15.5693L20.3406 27.3008V31.9644H24.6456V27.3725L29.4168 19.3008Z" fill="#1D1D1D"/>
<path fill-rule="evenodd" clip-rule="evenodd" d="M26.6904 8.07174C26.6904 5.09416 28.0178 1.90134 29.1299 0L32.4303 1.90134C31.4617 3.55156 30.4931 6.06277 30.4931 8.03586C30.4931 9.00447 30.7442 9.61433 31.0671 10.0448C31.39 10.4394 32.0716 10.8699 33.5424 10.9776L33.2913 14.7802C31.103 14.6367 29.381 13.9193 28.1972 12.556C27.0492 11.2287 26.6904 9.57846 26.6904 8.07174Z" fill="#5E81FF"/>
<path fill-rule="evenodd" clip-rule="evenodd" d="M34.942 10.2606C34.1169 7.42648 34.5474 3.94667 35.1214 1.83008L38.8165 2.79869C38.3501 4.62828 38.0631 7.31886 38.6012 9.2202C38.8523 10.1529 39.2469 10.691 39.7133 10.978C40.1438 11.265 40.8972 11.5162 42.3321 11.1933L43.1214 14.9242C40.9689 15.3547 39.1034 15.1395 37.5967 14.1709C36.1617 13.2023 35.3725 11.6955 34.942 10.2606Z" fill="#5E81FF"/>
<path d="M49.5067 5.30912C51.0493 5.30912 52.3049 6.56472 52.3049 8.10732C52.3049 9.64992 51.0493 10.9055 49.5067 10.9055C47.9641 10.9055 46.7085 9.64992 46.7085 8.10732C46.7085 6.56472 47.9641 5.30912 49.5067 5.30912ZM49.5067 1.72168C45.991 1.72168 43.1211 4.59163 43.1211 8.10732C43.1211 11.623 45.991 14.493 49.5067 14.493C53.0224 14.493 55.8924 11.623 55.8924 8.10732C55.8924 4.59163 53.0583 1.72168 49.5067 1.72168Z" fill="#5E81FF"/>
</svg>
