<svg width="300" height="226" viewBox="0 0 300 226" fill="none" xmlns="http://www.w3.org/2000/svg">
<path fill-rule="evenodd" clip-rule="evenodd" d="M225.415 13.7748C225.29 13.3868 225.413 12.9616 225.726 12.7003C226.728 11.8649 227.354 10.6329 227.354 9.26362C227.354 6.78485 225.287 4.73455 222.686 4.73455C220.085 4.73455 218.019 6.78485 218.019 9.26362C218.019 11.2232 219.306 12.9119 221.135 13.537C221.527 13.6707 221.795 14.0316 221.811 14.4448C221.827 14.858 221.586 15.238 221.206 15.4009C220.928 15.5198 220.673 15.6418 220.447 15.7618C220.425 15.7732 220.404 15.7838 220.381 15.7936C219.313 16.2634 218.452 17.201 217.78 18.5363C217.108 19.8731 216.661 21.5401 216.394 23.3335C215.92 26.5131 216.032 29.933 216.321 32.2541H238.002C237.089 29.367 234.786 23.5094 232.048 18.3108C230.614 15.5884 228.459 14.616 226.297 14.4642C225.89 14.4356 225.541 14.1628 225.415 13.7748ZM239.049 32.2541C239.17 32.6536 239.263 32.9902 239.323 33.2533H215.453C214.706 28.6431 214.586 17.77 219.613 15.0576C219.732 14.9934 219.854 14.9338 219.979 14.879C220.231 14.7455 220.51 14.6117 220.812 14.4824C220.398 14.3409 220.006 14.1539 219.642 13.9275C218.065 12.9459 217.019 11.2239 217.019 9.26362C217.019 6.21044 219.556 3.73535 222.686 3.73535C225.816 3.73535 228.354 6.21044 228.354 9.26362C228.354 10.4984 227.939 11.6386 227.237 12.5588C226.983 12.8926 226.691 13.1975 226.367 13.4675C226.788 13.497 227.21 13.5548 227.628 13.6457C229.653 14.0857 231.593 15.3017 232.933 17.8454C235.777 23.2441 238.172 29.3779 239.049 32.2541Z" fill="#1D1D1D"/>
<path fill-rule="evenodd" clip-rule="evenodd" d="M201.804 3.92648C201.326 1.92347 202.846 0 204.907 0H260.761C262.093 0 263.285 0.827375 263.75 2.07489L273.757 28.9256C274.533 31.0081 272.992 33.2249 270.768 33.2249H211.315C209.839 33.2249 208.555 32.2123 208.213 30.7772L201.804 3.92648ZM204.907 0.999203C203.492 0.999203 202.448 2.31964 202.777 3.69468L209.185 30.5454C209.421 31.5306 210.302 32.2257 211.315 32.2257H270.768C272.294 32.2257 273.352 30.7039 272.82 29.2743L262.813 2.42359C262.494 1.56719 261.675 0.999203 260.761 0.999203H204.907Z" fill="#1D1D1D"/>
<path fill-rule="evenodd" clip-rule="evenodd" d="M236.625 8.72485C236.625 8.44871 236.849 8.22485 237.125 8.22485H249C249.276 8.22485 249.5 8.44871 249.5 8.72485C249.5 9.001 249.276 9.22485 249 9.22485H237.125C236.849 9.22485 236.625 9.001 236.625 8.72485Z" fill="#1D1D1D"/>
<path fill-rule="evenodd" clip-rule="evenodd" d="M238.514 13.1744C238.514 12.8983 238.738 12.6744 239.014 12.6744H248.46C248.736 12.6744 248.96 12.8983 248.96 13.1744C248.96 13.4506 248.736 13.6744 248.46 13.6744H239.014C238.738 13.6744 238.514 13.4506 238.514 13.1744Z" fill="#1D1D1D"/>
<path fill-rule="evenodd" clip-rule="evenodd" d="M240.943 17.7587C240.943 17.4825 241.167 17.2587 241.443 17.2587H259.256C259.532 17.2587 259.756 17.4825 259.756 17.7587C259.756 18.0348 259.532 18.2587 259.256 18.2587H241.443C241.167 18.2587 240.943 18.0348 240.943 17.7587Z" fill="#1D1D1D"/>
<path fill-rule="evenodd" clip-rule="evenodd" d="M223.5 20.9832C223.5 20.7073 223.724 20.4836 224 20.4836H227.5C227.667 20.4836 227.823 20.5671 227.916 20.7061C228.009 20.8451 228.026 21.0212 227.962 21.1754L225.462 27.1706C225.355 27.4253 225.063 27.5458 224.808 27.4396C224.553 27.3335 224.432 27.041 224.538 26.7863L226.75 21.4828H224C223.724 21.4828 223.5 21.2592 223.5 20.9832Z" fill="#5E81FF"/>
<path fill-rule="evenodd" clip-rule="evenodd" d="M244.06 89.0829C243.923 88.7819 243.944 88.4326 244.116 88.1501C244.527 87.4757 244.762 86.6906 244.762 85.8503C244.762 83.3715 242.695 81.3212 240.094 81.3212C237.493 81.3212 235.427 83.3715 235.427 85.8503C235.427 87.4629 236.296 88.8889 237.625 89.6947C237.91 89.8673 238.09 90.17 238.105 90.5023C238.121 90.8346 237.97 91.1529 237.703 91.3512C237.189 91.7325 236.73 92.1594 236.337 92.6188C233.499 97.8917 233.791 104.082 234.466 108.68L255.278 108.68C255.226 108.338 255.17 107.956 255.11 107.55L255.101 107.486C254.806 105.476 254.395 102.679 253.757 100.017C253.108 97.3085 252.264 94.9298 251.197 93.6308C249.213 91.2183 246.96 90.0266 244.8 89.6541C244.474 89.5978 244.197 89.384 244.06 89.0829ZM256.291 108.68C256.357 109.103 256.416 109.443 256.47 109.679L233.608 109.679C232.843 104.96 232.268 97.9855 235.506 92.0528C235.749 91.7613 236.015 91.4824 236.3 91.2182C236.553 90.9829 236.823 90.7593 237.107 90.549C236.808 90.368 236.528 90.1607 236.27 89.9304C235.137 88.9196 234.427 87.4659 234.427 85.8503C234.427 82.7971 236.964 80.322 240.094 80.322C243.224 80.322 245.762 82.7971 245.762 85.8503C245.762 86.513 245.642 87.1485 245.423 87.7373C245.302 88.0634 245.15 88.3752 244.97 88.6695C245.31 88.728 245.65 88.8046 245.991 88.9001C248.069 89.4838 250.144 90.7758 251.969 92.9966C254.424 95.9824 255.502 103.331 256.09 107.341C256.164 107.845 256.23 108.297 256.291 108.68Z" fill="#1D1D1D"/>
<path fill-rule="evenodd" clip-rule="evenodd" d="M219.212 80.5133C218.734 78.5103 220.253 76.5868 222.314 76.5868H278.176C279.504 76.5868 280.693 77.4089 281.161 78.6507L291.28 105.501C292.066 107.586 290.524 109.812 288.295 109.812H228.723C227.247 109.812 225.963 108.799 225.62 107.364L219.212 80.5133ZM222.314 77.586C220.9 77.586 219.856 78.9064 220.184 80.2815L226.593 107.132C226.828 108.117 227.709 108.813 228.723 108.813H288.295C289.825 108.813 290.883 107.284 290.344 105.854L280.225 79.0029C279.904 78.1504 279.087 77.586 278.176 77.586H222.314Z" fill="#1D1D1D"/>
<path fill-rule="evenodd" clip-rule="evenodd" d="M257.136 89.7612C257.136 89.4851 257.36 89.2612 257.636 89.2612H270.051C270.327 89.2612 270.551 89.4851 270.551 89.7612C270.551 90.0374 270.327 90.2612 270.051 90.2612H257.636C257.36 90.2612 257.136 90.0374 257.136 89.7612Z" fill="#1D1D1D"/>
<path fill-rule="evenodd" clip-rule="evenodd" d="M259.026 94.3455C259.026 94.0693 259.249 93.8455 259.526 93.8455H279.497C279.773 93.8455 279.997 94.0693 279.997 94.3455C279.997 94.6216 279.773 94.8455 279.497 94.8455H259.526C259.249 94.8455 259.026 94.6216 259.026 94.3455Z" fill="#1D1D1D"/>
<path d="M245.912 100.578C245.912 100.834 245.713 101.033 245.456 101.033H242.522H242.514H242.506C242.381 101.033 242.249 100.984 242.166 100.884C241.992 100.694 242.008 100.412 242.191 100.238C242.191 100.238 243.358 98.4263 243.635 98.0182C243.912 97.6102 243.983 97.5214 243.983 97.2228C243.983 96.9581 243.892 96.7097 243.71 96.5027C243.494 96.2624 243.203 96.1545 242.914 96.1545C242.657 96.1545 242.4 96.2455 242.193 96.428L241.936 96.6601C241.745 96.8339 241.463 96.8176 241.29 96.6269C241.124 96.4362 241.133 96.1545 241.323 95.9808L241.58 95.7487C241.953 95.4011 242.442 95.2349 242.914 95.2349C243.453 95.2349 244 95.4588 244.39 95.8898C244.737 96.2624 244.903 96.7505 244.903 97.2228C244.903 97.7617 244.248 98.697 244.248 98.697L243.355 100.114H245.456C245.713 100.114 245.912 100.321 245.912 100.578Z" fill="#5E81FF"/>
<path d="M286.768 25.3108H230.951C229.213 25.3108 227.932 26.9327 228.335 28.6218L234.744 55.4725C235.032 56.6827 236.115 57.5365 237.36 57.5365H296.213C298.067 57.5365 299.365 55.7058 298.75 53.9579L289.306 27.1072C288.927 26.031 287.91 25.3108 286.768 25.3108Z" fill="white"/>
<path fill-rule="evenodd" clip-rule="evenodd" d="M227.848 28.7375C227.37 26.7345 228.89 24.811 230.951 24.811H286.768C288.122 24.811 289.328 25.6651 289.777 26.9414L299.222 53.7921C299.951 55.865 298.412 58.036 296.213 58.036H237.36C235.883 58.036 234.6 57.0234 234.257 55.5882L227.848 28.7375ZM230.951 25.8102C229.536 25.8102 228.493 27.1307 228.821 28.5057L235.23 55.3564C235.465 56.3416 236.346 57.0368 237.36 57.0368H296.213C297.722 57.0368 298.779 55.5464 298.278 54.1234L288.834 27.2727C288.526 26.3965 287.698 25.8102 286.768 25.8102H230.951Z" fill="#1D1D1D"/>
<path fill-rule="evenodd" clip-rule="evenodd" d="M266.313 36.3677C266.313 36.0915 266.537 35.8677 266.813 35.8677H276.259C276.535 35.8677 276.759 36.0915 276.759 36.3677C276.759 36.6438 276.535 36.8677 276.259 36.8677H266.813C266.537 36.8677 266.313 36.6438 266.313 36.3677Z" fill="#1D1D1D"/>
<path fill-rule="evenodd" clip-rule="evenodd" d="M267.932 40.6826C267.932 40.4065 268.156 40.1826 268.432 40.1826H285.435C285.711 40.1826 285.935 40.4065 285.935 40.6826C285.935 40.9588 285.711 41.1826 285.435 41.1826H268.432C268.156 41.1826 267.932 40.9588 267.932 40.6826Z" fill="#1D1D1D"/>
<path fill-rule="evenodd" clip-rule="evenodd" d="M270.361 45.4015C270.361 45.1253 270.585 44.9015 270.861 44.9015H288.674C288.95 44.9015 289.174 45.1253 289.174 45.4015C289.174 45.6776 288.95 45.9015 288.674 45.9015H270.861C270.585 45.9015 270.361 45.6776 270.361 45.4015Z" fill="#1D1D1D"/>
<path fill-rule="evenodd" clip-rule="evenodd" d="M251.848 38.2866C251.711 37.92 251.801 37.5073 252.078 37.2308C252.898 36.4115 253.398 35.2988 253.398 34.0749C253.398 31.5961 251.331 29.5458 248.73 29.5458C246.129 29.5458 244.063 31.5961 244.063 34.0749C244.063 35.6209 244.861 36.9945 246.098 37.8159C246.421 38.0301 246.591 38.4113 246.534 38.7942C246.477 39.1771 246.205 39.4929 245.834 39.6047C245.316 39.7608 244.905 39.9253 244.611 40.0814C244.589 40.0928 244.567 40.1034 244.545 40.1132C243.566 40.5434 242.859 41.393 242.374 42.641C241.885 43.9013 241.655 45.4938 241.607 47.2461C241.513 50.6545 242.11 54.4078 242.526 56.9471H264.055C264.018 56.6052 263.984 56.2316 263.947 55.8415L263.939 55.7539C263.769 53.9173 263.537 51.4362 262.938 48.8926C262.338 46.3427 261.385 43.8093 259.822 41.8426C258.388 40.038 255.696 39.1475 252.713 38.9342C252.323 38.9063 251.985 38.6532 251.848 38.2866ZM265.061 56.9471C265.107 57.3609 265.155 57.6993 265.211 57.9463H241.677C241.645 57.7496 241.61 57.5408 241.574 57.3211C240.744 52.2712 238.97 41.4728 244.142 39.1987C244.23 39.1518 244.325 39.1055 244.425 39.0598C244.744 38.9146 245.121 38.776 245.545 38.6481C245.215 38.4292 244.91 38.1771 244.635 37.8969C243.661 36.9041 243.063 35.5577 243.063 34.0749C243.063 31.0217 245.6 28.5466 248.73 28.5466C251.86 28.5466 254.398 31.0217 254.398 34.0749C254.398 35.1495 254.083 36.1525 253.54 37.0012C253.323 37.3396 253.069 37.6535 252.785 37.9376C253.194 37.9668 253.603 38.0086 254.008 38.0641C256.645 38.4254 259.132 39.3679 260.605 41.2212C263.99 45.4798 264.595 51.996 264.935 55.6616C264.98 56.1432 265.02 56.5755 265.061 56.9471Z" fill="#1D1D1D"/>
<path fill-rule="evenodd" clip-rule="evenodd" d="M227.848 28.7378C227.37 26.7348 228.89 24.8113 230.951 24.8113H286.768C288.122 24.8113 289.328 25.6653 289.777 26.9416L299.222 53.7923C299.951 55.8652 298.412 58.0362 296.213 58.0362H237.36C235.883 58.0362 234.6 57.0236 234.257 55.5885L227.848 28.7378ZM230.951 25.8105C229.536 25.8105 228.493 27.1309 228.821 28.506L235.23 55.3567C235.465 56.3419 236.346 57.037 237.36 57.037H296.213C297.722 57.037 298.779 55.5467 298.278 54.1236L288.834 27.2729C288.526 26.3968 287.698 25.8105 286.768 25.8105H230.951Z" fill="#1D1D1D"/>
<path fill-rule="evenodd" clip-rule="evenodd" d="M249.57 45.7042C249.75 45.7495 249.889 45.8904 249.933 46.0703L251.408 52.1172C251.474 52.3852 251.309 52.6555 251.041 52.7209C250.773 52.7862 250.502 52.6219 250.437 52.3538L249.182 47.2109C249.154 47.2416 249.126 47.2717 249.098 47.3009C248.879 47.537 248.722 47.7132 248.638 47.8296C248.477 48.0532 248.164 48.1035 247.94 47.9418C247.716 47.7802 247.666 47.4679 247.828 47.2443C247.954 47.0697 248.155 46.8485 248.365 46.6216C248.432 46.5494 248.501 46.4754 248.572 46.3997C248.734 46.2265 248.904 46.0443 249.076 45.8539C249.2 45.7165 249.39 45.6589 249.57 45.7042Z" fill="#5E81FF"/>
<path fill-rule="evenodd" clip-rule="evenodd" d="M252.754 45.3889C253.829 44.9593 255.162 45.3897 255.6 46.7025C255.687 46.9643 255.545 47.2472 255.284 47.3345C255.022 47.4218 254.738 47.2804 254.651 47.0186C254.416 46.3158 253.732 46.0744 253.126 46.3167C252.91 46.403 252.811 46.5305 252.757 46.6949C252.695 46.8865 252.69 47.1521 252.742 47.4881C252.794 47.8182 252.892 48.1682 252.997 48.5115C253.015 48.5705 253.033 48.6305 253.052 48.6908C253.052 48.6918 253.052 48.6928 253.053 48.6937C253.138 48.6031 253.232 48.5218 253.335 48.4507C253.845 48.0996 254.47 48.0715 255.078 48.2236C255.633 48.3622 256.018 48.8607 256.232 49.333C256.455 49.8249 256.564 50.4345 256.457 50.9872C256.336 51.6076 255.8 52.5672 254.621 52.5672C253.882 52.5672 253.361 52.2921 253.014 51.8134C252.701 51.382 252.562 50.8208 252.452 50.3289C252.433 50.2459 252.404 50.1349 252.372 50.0138L252.367 49.9948C252.336 49.8769 252.3 49.7407 252.281 49.6448C252.249 49.4836 252.186 49.2763 252.104 49.0113C252.084 48.9452 252.062 48.8755 252.04 48.8021C251.934 48.4544 251.817 48.0466 251.754 47.6416C251.692 47.2424 251.674 46.7954 251.806 46.3866C251.948 45.9505 252.252 45.5895 252.754 45.3889ZM253.448 50.1982C253.555 50.6651 253.659 51.0002 253.824 51.2276C253.964 51.4216 254.171 51.568 254.621 51.568C255.123 51.568 255.402 51.1735 255.475 50.7964C255.536 50.4856 255.476 50.0874 255.321 49.7454C255.157 49.3838 254.953 49.2223 254.836 49.1929C254.397 49.0834 254.098 49.1392 253.903 49.2735C253.718 49.4009 253.529 49.6665 253.448 50.1982Z" fill="#5E81FF"/>
<path d="M96.9945 19.0593C100.482 12.7981 111.541 18.8596 118.494 24.2467C119.023 24.6563 118.662 25.469 117.998 25.387C110.067 24.4061 111.733 24.6454 106.53 25.0347C103.159 25.287 97.853 27.2001 96.6782 21.8367C96.4317 20.7117 96.591 19.7837 96.9945 19.0593Z" fill="#5E81FF"/>
<path d="M114.588 5.2895C120.433 4.2452 122.398 14.3238 122.638 21.6933C122.66 22.3613 121.809 22.6041 121.453 22.0385C118.084 16.6912 118.735 17.8047 115.766 14.6806C113.807 12.6193 109.735 10.1818 112.608 6.56185C113.211 5.80256 113.901 5.41231 114.588 5.2895Z" fill="#5E81FF"/>
<path fill-rule="evenodd" clip-rule="evenodd" d="M8.41277 62.1316C8.68446 62.0822 8.94475 62.2623 8.99415 62.5337C9.57189 65.7088 10.1206 70.5645 9.88159 74.8148C9.76226 76.937 9.44496 78.9433 8.81529 80.5217C8.49958 81.3131 8.09556 82.0192 7.58285 82.577L63.9902 77.6084C64.2653 77.5842 64.508 77.7873 64.5322 78.0622C64.5565 78.337 64.3531 78.5795 64.0781 78.6037L5.6343 83.7517C5.37625 83.7745 5.14355 83.5965 5.09814 83.3416C5.05273 83.0868 5.20964 82.8395 5.45969 82.7718C6.51285 82.4868 7.31292 81.5892 7.88637 80.1517C8.45837 78.7179 8.76645 76.8344 8.88316 74.7587C9.11624 70.6134 8.57961 65.8413 8.01028 62.7125C7.96088 62.441 8.14108 62.1809 8.41277 62.1316Z" fill="#1D1D1D"/>
<path fill-rule="evenodd" clip-rule="evenodd" d="M72.8923 52.5596C73.1168 52.3989 73.4291 52.4504 73.59 52.6746L87.8421 72.5413C88.0029 72.7655 87.9514 73.0777 87.727 73.2384C87.5026 73.3992 87.1902 73.3477 87.0293 73.1234L72.7773 53.2568C72.6164 53.0325 72.6679 52.7204 72.8923 52.5596Z" fill="#1D1D1D"/>
<path d="M0.5 27.5168L1.6197 21.1688L19.4877 76.2455L13.7964 85.2385L0.5 27.5168Z" fill="white"/>
<path fill-rule="evenodd" clip-rule="evenodd" d="M1.58497 20.6704C1.81404 20.6545 2.02453 20.7965 2.09534 21.0147L19.9633 76.0914C20.0091 76.2327 19.9897 76.387 19.9103 76.5125L14.219 85.5055C14.1111 85.6759 13.9113 85.7648 13.7124 85.731C13.5134 85.6971 13.3544 85.547 13.3091 85.3505L0.0127405 27.6288C-0.00228906 27.5636 -0.00404078 27.496 0.00758931 27.4301L1.12729 21.0821C1.16715 20.8561 1.35591 20.6863 1.58497 20.6704ZM1.76347 23.2321L1.01003 27.5036L14.0147 83.9588L18.9397 76.1766L1.76347 23.2321Z" fill="#1D1D1D"/>
<path d="M87.2597 73.0073L19.62 76.1123L13.7964 85.2376L78.2862 80.3914L87.2597 73.0073Z" fill="white"/>
<path fill-rule="evenodd" clip-rule="evenodd" d="M87.7263 72.8278C87.8036 73.0286 87.7437 73.2562 87.5775 73.393L78.604 80.777C78.5244 80.8425 78.4265 80.8818 78.3237 80.8896L13.8339 85.7357C13.6451 85.7499 13.4645 85.6564 13.3673 85.494C13.2701 85.3317 13.273 85.1284 13.3748 84.9689L19.1984 75.8437C19.2859 75.7067 19.4346 75.6207 19.5971 75.6132L87.2367 72.5082C87.4518 72.4983 87.649 72.6271 87.7263 72.8278ZM19.9021 76.5995L14.7551 84.6645L78.0906 79.905L85.783 73.5752L19.9021 76.5995Z" fill="#1D1D1D"/>
<path d="M67.5536 20.5668H5.61433H1.91174C1.68677 20.5668 1.52096 20.7682 1.58587 20.9834C2.64537 24.4964 10.187 49.2416 14.8551 57.4657C19.5344 65.7095 25.4739 70.697 26.2784 71.3516C26.3393 71.4012 26.4131 71.4242 26.4916 71.422L99.5755 69.4008C99.9137 69.3914 100.04 68.9345 99.7545 68.7535C96.8671 66.9238 88.3449 61.1443 82.4887 53.2337C75.7541 44.1369 68.667 23.1793 67.8711 20.7899C67.8252 20.6521 67.6989 20.5668 67.5536 20.5668Z" fill="white"/>
<path fill-rule="evenodd" clip-rule="evenodd" d="M67.0768 21.566H2.80734C3.60291 24.1789 5.53534 30.4321 7.81413 37.1366C10.4221 44.8094 13.446 52.9578 15.725 56.9728C20.0375 64.5703 25.4444 69.3505 26.7156 70.4162L97.486 68.459C93.6928 65.8853 86.7307 60.644 81.6847 53.828C78.2345 49.1676 74.7392 41.5471 72.0264 34.8725C69.5583 28.8001 67.7025 23.4203 67.0768 21.566ZM99.2206 68.411C95.9253 66.2729 88.0185 60.7033 82.4887 53.2337C75.7541 44.1369 68.667 23.1793 67.8711 20.7899C67.8252 20.6521 67.6989 20.5668 67.5536 20.5668H1.91174C1.68677 20.5668 1.52096 20.7682 1.58587 20.9834C2.64537 24.4964 10.187 49.2416 14.8551 57.4657C19.5344 65.7095 25.4739 70.697 26.2784 71.3516C26.3393 71.4012 26.4131 71.4242 26.4916 71.422L99.5755 69.4008C99.9137 69.3914 100.04 68.9345 99.7545 68.7535C99.6904 68.7129 99.6236 68.6703 99.554 68.6259C99.4715 68.573 99.3851 68.5175 99.2951 68.4593C99.2705 68.4434 99.2457 68.4273 99.2206 68.411Z" fill="#1D1D1D"/>
<path fill-rule="evenodd" clip-rule="evenodd" d="M40.2944 70.0775C40.4877 70.2416 40.5145 70.5771 40.3543 70.8269C40.194 71.0767 39.9074 71.1462 39.7141 70.9821L40.0043 70.5298C39.7141 70.9821 39.7142 70.9822 39.7141 70.9821L39.7086 70.9774L39.6939 70.9649L39.6377 70.9163C39.5886 70.8735 39.5162 70.8101 39.4224 70.7264C39.2347 70.5591 38.9611 70.3109 38.6149 69.9852C37.9227 69.3338 36.9402 68.3725 35.7753 67.1292C33.4463 64.6433 30.3844 61.0263 27.4547 56.5022C24.5195 51.9695 21.7927 46.052 19.8039 41.2826C18.8082 38.895 17.9951 36.7894 17.4309 35.2804C17.1487 34.5258 16.9286 33.9201 16.779 33.5027C16.7042 33.294 16.647 33.1324 16.6084 33.0227L16.5646 32.8977L16.5534 32.8656L16.5498 32.8552C16.5498 32.8551 16.5495 32.8544 16.9729 32.6027L17.3964 32.351L17.3998 32.3608L17.4105 32.3916L17.4533 32.5138C17.4912 32.6216 17.5477 32.7812 17.6218 32.9879C17.77 33.4012 17.9884 34.0023 18.2687 34.7521C18.8295 36.2517 19.6378 38.345 20.6276 40.7184C22.6094 45.471 25.3093 51.3237 28.1976 55.784C31.0914 60.2528 34.1186 63.8292 36.4227 66.2885C37.5744 67.5177 38.5445 68.4669 39.2258 69.1079C39.5664 69.4284 39.8347 69.6718 40.0173 69.8346C40.1086 69.9159 40.1785 69.9772 40.2252 70.0178L40.2778 70.0633L40.2907 70.0743L40.2937 70.0769L40.2944 70.0775ZM16.9729 32.6027L17.3964 32.351C17.3049 32.0864 17.0411 31.9846 16.8073 32.1236C16.5735 32.2627 16.4583 32.5907 16.5498 32.8552L16.9729 32.6027Z" fill="#1D1D1D"/>
<path fill-rule="evenodd" clip-rule="evenodd" d="M51.9571 70.5471C51.7618 70.7422 51.4452 70.7422 51.25 70.5471C51.0139 70.3112 50.7015 70.0221 50.3205 69.6694C48.1708 67.6796 43.8339 63.6653 38.6578 55.7551C35.5973 51.078 33.1882 45.32 31.547 40.748C30.7253 38.4588 30.0937 36.4602 29.6674 35.0333C29.4542 34.3198 29.2923 33.749 29.1835 33.3559C29.1291 33.1594 29.0879 33.0073 29.0604 32.904C29.0466 32.8524 29.0361 32.813 29.0291 32.7863L29.0212 32.7559L29.0186 32.7459C29.0185 32.7457 29.0183 32.745 29.5025 32.6201L29.9866 32.4952L29.9889 32.5041L29.9963 32.5326L30.0265 32.6463C30.0534 32.7468 30.0937 32.896 30.1473 33.0896C30.2544 33.4767 30.4145 34.041 30.6256 34.7475C31.0478 36.1607 31.6739 38.1417 32.4883 40.4107C34.1196 44.9551 36.4975 50.6279 39.4948 55.2083C44.598 63.0071 48.8466 66.9419 51.003 68.9391C51.3913 69.2986 51.7117 69.5954 51.9571 69.8406C52.1523 70.0357 52.1523 70.352 51.9571 70.5471ZM29.3774 32.1364C29.6448 32.0674 29.9175 32.2281 29.9866 32.4952L29.5025 32.6201L29.0186 32.7459C28.9495 32.4787 29.1101 32.2054 29.3774 32.1364Z" fill="#1D1D1D"/>
<path fill-rule="evenodd" clip-rule="evenodd" d="M63.058 70.2046C62.8662 70.4031 62.5497 70.4087 62.351 70.217C61.7162 69.6046 61.0987 69.0431 60.4848 68.4847C59.2838 67.3926 58.0962 66.3126 56.8183 64.8875C54.869 62.7136 52.6823 59.7155 49.7586 54.5367C46.8308 49.3506 44.5053 43.9352 42.9126 39.8205C42.1158 37.7622 41.5016 36.027 41.0863 34.8056C40.8787 34.1949 40.7207 33.7125 40.6145 33.3823C40.5614 33.2172 40.5213 33.0902 40.4943 33.0041L40.4637 32.9061L40.456 32.8809L40.4534 32.8726C40.4534 32.8725 40.4532 32.8719 40.9202 32.7294L40.4534 32.8726C40.3727 32.6087 40.5212 32.3288 40.7853 32.2481C41.0494 32.1675 41.3289 32.3161 41.4096 32.58L41.4118 32.5874L41.4191 32.6109L41.4486 32.7055C41.4748 32.7893 41.5142 32.914 41.5666 33.0766C41.6712 33.402 41.8274 33.8791 42.0332 34.4842C42.4447 35.6946 43.0542 37.4166 43.8452 39.4601C45.428 43.5492 47.7338 48.9165 50.6296 54.0458C53.5296 59.1825 55.6759 62.1161 57.5631 64.2207C58.8097 65.6109 59.9321 66.6308 61.1085 67.6999C61.7304 68.265 62.3673 68.8438 63.0456 69.4982C63.2443 69.6899 63.2498 70.0061 63.058 70.2046Z" fill="#1D1D1D"/>
<path fill-rule="evenodd" clip-rule="evenodd" d="M73.7098 69.9855C73.5145 70.1806 73.1979 70.1806 73.0027 69.9855C72.697 69.6801 72.3312 69.3342 71.9115 68.9374C69.4453 66.6058 65.1201 62.5166 60.2241 54.5528C57.3518 49.8808 55.1332 44.4519 53.6346 40.2029C52.8844 38.076 52.3129 36.2397 51.9287 34.9343C51.7366 34.2816 51.5913 33.7614 51.4938 33.4038C51.4451 33.225 51.4083 33.0868 51.3837 32.993L51.3558 32.8861L51.3487 32.8585L51.3463 32.8493C51.3463 32.8492 51.3461 32.8485 51.8307 32.7256L52.3154 32.6026L52.3174 32.6106L52.324 32.6362L52.3508 32.7391C52.3748 32.8301 52.4108 32.9654 52.4587 33.1413C52.5545 33.4929 52.698 34.0066 52.8881 34.6524C53.2683 35.9442 53.8345 37.7635 54.5777 39.8708C56.0659 44.0903 58.257 49.4442 61.0761 54.0298C65.8995 61.8755 70.1355 65.8818 72.6005 68.2131C73.0247 68.6143 73.3965 68.9659 73.7098 69.279C73.905 69.4741 73.905 69.7904 73.7098 69.9855ZM51.7077 32.2413C51.9753 32.1734 52.2474 32.3352 52.3154 32.6026L51.8307 32.7256L51.3463 32.8493C51.2784 32.5819 51.44 32.3093 51.7077 32.2413Z" fill="#1D1D1D"/>
<path fill-rule="evenodd" clip-rule="evenodd" d="M87.7462 68.7485C87.9626 68.9198 87.9991 69.2341 87.8276 69.4503C87.656 69.6666 87.3416 69.703 87.1251 69.5316L87.4357 69.14L87.7462 68.7485ZM62.3709 32.6028L62.8464 32.4483L62.8469 32.4498L62.8487 32.4554L62.8563 32.4784L62.8867 32.5704C62.9138 32.6517 62.9544 32.7726 63.008 32.9297C63.1153 33.244 63.2746 33.7033 63.4825 34.2812C63.8983 35.437 64.5079 37.0668 65.2823 38.9601C66.8327 42.7505 69.0372 47.5812 71.6627 51.7787C74.2759 55.9564 78.2884 60.1959 81.6669 63.4036C83.3528 65.0042 84.8743 66.3417 85.9739 67.2788C86.5236 67.7473 86.9676 68.1154 87.2738 68.3661C87.4269 68.4915 87.5454 68.5875 87.6255 68.6519L87.7163 68.7246L87.739 68.7428L87.7446 68.7472L87.7462 68.7485L87.4357 69.14C87.1251 69.5316 87.1253 69.5317 87.1251 69.5316L87.1165 69.5247L87.0922 69.5054L86.9983 69.4301C86.9161 69.364 86.7953 69.2662 86.6399 69.139C86.3292 68.8845 85.8801 68.5122 85.3249 68.0391C84.2148 67.093 82.6797 65.7434 80.9781 64.1279C77.5817 60.9033 73.4958 56.5945 70.8147 52.3082C68.146 48.0418 65.9166 43.1521 64.3566 39.3381C63.5759 37.4293 62.9612 35.7859 62.5415 34.6191C62.3316 34.0357 62.1704 33.5713 62.0615 33.2522C62.0071 33.0927 61.9657 32.9695 61.9379 32.8859L61.9063 32.7907L61.8983 32.7661L61.8956 32.758C61.8956 32.7579 61.8954 32.7573 62.3709 32.6028ZM62.3709 32.6028L62.8464 32.4483C62.761 32.1859 62.4788 32.0423 62.2162 32.1277C61.9536 32.213 61.8102 32.4956 61.8956 32.758L62.3709 32.6028Z" fill="#1D1D1D"/>
<path fill-rule="evenodd" clip-rule="evenodd" d="M76.5641 43.2954C76.5641 43.5713 76.3402 43.795 76.0641 43.795L9.16391 43.795C8.88777 43.795 8.66391 43.5713 8.66391 43.2954C8.66391 43.0194 8.88777 42.7958 9.16391 42.7958L76.0641 42.7958C76.3402 42.7958 76.5641 43.0194 76.5641 43.2954Z" fill="#1D1D1D"/>
<path fill-rule="evenodd" clip-rule="evenodd" d="M81.726 52.7191C81.726 52.995 81.5022 53.2187 81.226 53.2187L13.3384 53.2187C13.0623 53.2187 12.8384 52.9951 12.8384 52.7191C12.8384 52.4432 13.0623 52.2195 13.3384 52.2195L81.226 52.2195C81.5022 52.2195 81.726 52.4432 81.726 52.7191Z" fill="#1D1D1D"/>
<path fill-rule="evenodd" clip-rule="evenodd" d="M89.5349 61.2238C89.5371 61.4997 89.3151 61.7253 89.039 61.7275L18.3017 62.3082C18.0256 62.3105 17.7999 62.0887 17.7976 61.8128C17.7953 61.5368 18.0173 61.3113 18.2935 61.3091L89.0308 60.7283C89.3069 60.7261 89.5326 60.9479 89.5349 61.2238Z" fill="#1D1D1D"/>
<path fill-rule="evenodd" clip-rule="evenodd" d="M24.7642 37.1348C24.512 37.2263 24.1985 37.3399 23.8412 37.3886C23.7606 37.3996 23.7296 37.4245 23.7117 37.4431C23.6864 37.4694 23.6521 37.5228 23.6229 37.6279C23.5612 37.8501 23.5612 38.1376 23.5613 38.4757C23.5613 38.486 23.5613 38.4962 23.5613 38.5065C23.5613 38.6106 23.576 38.7004 23.6029 38.7794C23.6855 38.8295 23.7544 38.9039 23.7977 38.9982C23.8221 39.0515 23.8774 39.1251 23.9761 39.209C24.1038 39.2884 24.2616 39.3579 24.448 39.4162C24.9278 39.5663 25.4957 39.6119 25.9643 39.6242C26.3405 39.4009 26.4698 39.2655 26.5285 39.1314C26.5959 38.977 26.6184 38.7113 26.486 38.0798C26.4274 37.8001 26.3157 37.4931 26.1599 37.2645C26.0036 37.0351 25.8509 36.9481 25.7099 36.94C25.4221 36.9235 25.186 36.9862 24.9022 37.0854C24.8585 37.1007 24.8125 37.1174 24.7642 37.1348ZM26.7744 40.2925C27.0611 40.0917 27.3029 39.856 27.4449 39.5313C27.6487 39.0651 27.6003 38.5216 27.4648 37.875C27.3885 37.5111 27.2375 37.0705 26.9865 36.7021C26.7361 36.3346 26.3379 35.9752 25.7672 35.9425C25.2816 35.9146 24.8966 36.0288 24.572 36.1423C24.5107 36.1637 24.4529 36.1845 24.3974 36.2044C24.1486 36.2937 23.9491 36.3654 23.7061 36.3985C23.4182 36.4378 23.1759 36.5584 22.9911 36.7503C22.8138 36.9344 22.7161 37.1563 22.6593 37.3608C22.5593 37.7208 22.5604 38.1385 22.5612 38.4346C22.5612 38.4594 22.5613 38.4835 22.5613 38.5065C22.5613 39.0261 22.755 39.4455 23.0704 39.7607C23.1675 39.8578 23.2739 39.943 23.3864 40.0178C23.4394 40.06 23.4938 40.0995 23.5484 40.1363C23.8179 40.3181 24.1346 40.463 24.4532 40.565C24.7718 40.6671 25.11 40.7321 25.4267 40.7424C25.6783 40.7507 25.9538 40.7256 26.2001 40.6273C26.2355 40.6275 26.2696 40.6276 26.3022 40.6276C26.5206 40.6276 26.7064 40.4876 26.7744 40.2925Z" fill="#5E81FF"/>
<path fill-rule="evenodd" clip-rule="evenodd" d="M64.1285 47.2081C63.8874 46.9277 63.6622 46.8284 63.3736 46.8776C62.9722 46.946 62.6074 47.1638 62.4681 47.5202C62.411 47.6662 62.3867 47.8553 62.3839 48.1015C62.3826 48.2223 62.3863 48.3469 62.3909 48.4806C62.3912 48.4919 62.3916 48.5032 62.392 48.5146C62.3961 48.635 62.4005 48.764 62.4005 48.8897C62.4005 48.9718 62.4387 49.0892 62.5136 49.1902C62.5489 49.2378 62.5829 49.2686 62.607 49.2849C62.6124 49.2886 62.6166 49.2911 62.6196 49.2928C62.7891 49.3088 62.9178 49.3806 63.0044 49.4449C63.0752 49.4974 63.1382 49.5615 63.1695 49.5933C63.1732 49.5971 63.1764 49.6004 63.1792 49.6032C63.1806 49.6047 63.182 49.606 63.1833 49.6074C63.2686 49.6022 63.3583 49.5892 63.4653 49.5713C63.4833 49.5683 63.5022 49.5651 63.5218 49.5618C63.6439 49.541 63.7938 49.5155 63.9484 49.5045C64.0707 49.4958 64.1857 49.5318 64.2777 49.5986C64.4297 49.5477 64.5718 49.4803 64.6862 49.3961C64.8219 49.2963 64.8973 49.1894 64.9283 49.0755C64.9591 48.9624 64.9632 48.78 64.8401 48.4965C64.6098 47.9663 64.3898 47.512 64.1285 47.2081ZM63.2524 50.6042C63.3383 50.6739 63.4479 50.7156 63.5672 50.7156C64.0507 50.7156 64.758 50.5842 65.2792 50.2007C65.55 50.0014 65.7895 49.719 65.8932 49.3378C65.9973 48.9557 65.9479 48.5373 65.7574 48.0987C65.5322 47.5802 65.2602 46.9909 64.887 46.557C64.4937 46.0995 63.942 45.767 63.2053 45.8926C62.6074 45.9946 61.8505 46.3538 61.5367 47.1566C61.4138 47.4709 61.3872 47.8031 61.384 48.0904C61.3824 48.2363 61.3869 48.3815 61.3914 48.5144C61.3918 48.5249 61.3921 48.5354 61.3925 48.5458C61.3967 48.6698 61.4005 48.782 61.4005 48.8897C61.4005 49.2251 61.533 49.5463 61.7101 49.7851C61.863 49.9912 62.1137 50.2192 62.4392 50.2766C62.4436 50.281 62.4483 50.2858 62.4539 50.2914C62.4585 50.2961 62.4636 50.3013 62.4695 50.3072C62.4723 50.31 62.4753 50.3131 62.4786 50.3164C62.5533 50.3924 62.7663 50.609 63.1043 50.609C63.1549 50.609 63.2044 50.6073 63.2524 50.6042Z" fill="#5E81FF"/>
<path fill-rule="evenodd" clip-rule="evenodd" d="M48.1096 54.9665C48.371 55.0557 48.5105 55.3397 48.4213 55.6008C48.3308 55.8658 48.1571 56.1453 48.0048 56.3708C47.9252 56.4888 47.8436 56.6032 47.7706 56.705C47.762 56.717 47.7535 56.7289 47.7451 56.7405C47.6813 56.8295 47.6268 56.9054 47.5821 56.9711C47.4295 57.1951 47.2614 57.404 47.1078 57.5948C47.0842 57.6242 47.061 57.6531 47.0382 57.6815C46.8614 57.9021 46.7048 58.1047 46.5728 58.3238C46.4721 58.491 46.3835 58.6733 46.288 58.8769C46.2754 58.9037 46.2626 58.9309 46.2497 58.9586C46.1676 59.1343 46.0781 59.3259 45.9779 59.5104C45.8462 59.7529 45.5428 59.8428 45.3 59.7112C45.0573 59.5796 44.9673 59.2763 45.099 59.0338C45.1836 58.8778 45.2592 58.7162 45.3422 58.5388C45.3554 58.5104 45.3689 58.4817 45.3826 58.4524C45.4789 58.2473 45.5863 58.0237 45.7161 57.8083C45.8852 57.5275 46.0785 57.2803 46.2575 57.0569C46.2824 57.0258 46.3069 56.9954 46.3311 56.9653C46.4862 56.7724 46.6269 56.5974 46.7553 56.4089C46.8075 56.3322 46.87 56.2452 46.9324 56.1581C46.9409 56.1463 46.9494 56.1345 46.9578 56.1228C47.0305 56.0214 47.1049 55.9171 47.1758 55.8119C47.3248 55.5913 47.431 55.4067 47.475 55.2779C47.5642 55.0167 47.8483 54.8773 48.1096 54.9665Z" fill="#5E81FF"/>
<path fill-rule="evenodd" clip-rule="evenodd" d="M44.3118 55.8566C44.3031 55.5808 44.5197 55.3502 44.7957 55.3415C45.0735 55.3327 45.2777 55.4968 45.3726 55.582C45.4862 55.6839 45.5903 55.8108 45.6723 55.9147C45.7069 55.9585 45.7375 55.9981 45.766 56.035C45.8148 56.0981 45.8575 56.1533 45.9036 56.2084C45.966 56.283 45.9984 56.3116 46.0057 56.318C46.0073 56.3195 46.0077 56.3198 46.0069 56.3193C46.4153 56.5708 46.7575 56.8549 47.093 57.1336C47.1802 57.206 47.2668 57.278 47.3541 57.3489C47.4903 57.4597 47.7898 57.6599 48.111 57.8474C48.2685 57.9394 48.4228 58.0234 48.5558 58.088C48.6982 58.1573 48.7857 58.1893 48.8202 58.1973C49.089 58.2603 49.2558 58.5292 49.1928 58.7978C49.1297 59.0664 48.8607 59.2331 48.5918 59.1701C48.4426 59.1352 48.2712 59.0609 48.1183 58.9865C47.9559 58.9076 47.7785 58.8106 47.6065 58.7102C47.2685 58.5129 46.918 58.2825 46.723 58.124C46.6177 58.0384 46.5197 57.9571 46.426 57.8794C46.0991 57.6083 45.825 57.381 45.4824 57.17C45.3368 57.0804 45.2168 56.9453 45.1364 56.8493C45.0789 56.7805 45.0148 56.6979 44.9582 56.6248C44.9326 56.5917 44.9085 56.5606 44.8872 56.5336C44.81 56.4358 44.753 56.3701 44.7095 56.33C44.4885 56.2842 44.3193 56.092 44.3118 55.8566ZM44.678 56.3046C44.6779 56.3043 44.6808 56.3059 44.6866 56.3104C44.681 56.3072 44.678 56.3049 44.678 56.3046Z" fill="#5E81FF"/>
<path d="M20.0693 18.5842C16.6428 15.7718 12.7716 18.9632 13.6121 21.4828L17.9828 21.4828C18.2698 22.3432 17.7546 23.0918 17.4144 23.4983C17.3165 23.6153 17.2529 23.7601 17.2553 23.9126C17.2818 25.583 18.6187 25.7055 19.7043 25.5031C19.837 25.4784 19.9571 25.4094 20.0439 25.3061C21.333 23.7694 22.3093 20.4228 20.0693 18.5842Z" fill="white"/>
<path fill-rule="evenodd" clip-rule="evenodd" d="M17.9828 21.4828C18.2698 22.3432 17.7546 23.0918 17.4144 23.4983C17.3165 23.6153 17.2529 23.7601 17.2553 23.9126C17.2818 25.583 18.6187 25.7055 19.7043 25.5031C19.837 25.4784 19.9571 25.4094 20.0439 25.3061C21.333 23.7694 22.3093 20.4228 20.0693 18.5842C16.6428 15.7718 12.7716 18.9632 13.6121 21.4828L17.9828 21.4828ZM14.5263 20.4836L17.9828 20.4836C18.4133 20.4836 18.7954 20.7588 18.9315 21.1668C19.3694 22.4796 18.6487 23.5577 18.2627 24.0402C18.2806 24.2313 18.3252 24.3324 18.354 24.3803C18.3846 24.4312 18.4235 24.4675 18.4951 24.4999C18.6657 24.5771 18.9686 24.6043 19.3727 24.5455C19.8545 23.9186 20.2866 22.9482 20.3849 21.9595C20.4872 20.9319 20.2265 20.0063 19.4345 19.3563C18.057 18.2256 16.6906 18.3392 15.7488 18.8945C15.0297 19.3185 14.6296 19.9279 14.5263 20.4836Z" fill="#1D1D1D"/>
<path fill-rule="evenodd" clip-rule="evenodd" d="M16.3061 19.9705C16.3061 19.6946 16.5299 19.4709 16.8061 19.4709C17.9396 19.4709 18.7766 20.1093 19.0519 21.0721C19.3186 22.0046 19.0322 23.136 18.2017 24.1502C18.0268 24.3638 17.7118 24.3952 17.4981 24.2205C17.2844 24.0458 17.2529 23.731 17.4277 23.5175C18.1102 22.6841 18.244 21.8837 18.0904 21.3466C17.9455 20.8396 17.5217 20.4702 16.8061 20.4702C16.5299 20.4702 16.3061 20.2465 16.3061 19.9705Z" fill="#1D1D1D"/>
<path d="M61.4227 18.5842C57.9963 15.7718 54.1251 18.9632 54.9655 21.4828L59.3363 21.4828C59.6232 22.3432 59.1081 23.0918 58.7679 23.4983C58.6699 23.6153 58.6063 23.7601 58.6087 23.9126C58.6352 25.583 59.9722 25.7055 61.0577 25.5031C61.1904 25.4784 61.3106 25.4094 61.3973 25.3061C62.6865 23.7694 63.6628 20.4228 61.4227 18.5842Z" fill="white"/>
<path fill-rule="evenodd" clip-rule="evenodd" d="M59.3363 21.4828C59.6232 22.3432 59.1081 23.0918 58.7679 23.4983C58.6699 23.6153 58.6063 23.7601 58.6087 23.9126C58.6352 25.583 59.9722 25.7055 61.0577 25.5031C61.1904 25.4784 61.3106 25.4094 61.3973 25.3061C62.6865 23.7694 63.6628 20.4228 61.4227 18.5842C57.9963 15.7718 54.1251 18.9632 54.9655 21.4828L59.3363 21.4828ZM55.8797 20.4836L59.3363 20.4836C59.7667 20.4836 60.1489 20.7588 60.285 21.1668C60.7229 22.4796 60.0021 23.5577 59.6162 24.0402C59.6341 24.2313 59.6787 24.3324 59.7074 24.3803C59.738 24.4312 59.777 24.4675 59.8486 24.4999C60.0191 24.5771 60.3221 24.6043 60.7262 24.5455C61.2079 23.9186 61.64 22.9482 61.7384 21.9595C61.8406 20.9319 61.5799 20.0063 60.788 19.3563C59.4104 18.2256 58.0441 18.3392 57.1022 18.8945C56.3831 19.3185 55.9831 19.9279 55.8797 20.4836Z" fill="#1D1D1D"/>
<path fill-rule="evenodd" clip-rule="evenodd" d="M57.6595 19.9705C57.6595 19.6946 57.8834 19.4709 58.1595 19.4709C59.2931 19.4709 60.1301 20.1093 60.4054 21.0721C60.6721 22.0046 60.3857 23.136 59.5551 24.1502C59.3803 24.3638 59.0653 24.3952 58.8515 24.2205C58.6378 24.0458 58.6063 23.731 58.7812 23.5175C59.4636 22.6841 59.5975 21.8837 59.4439 21.3466C59.2989 20.8396 58.8752 20.4702 58.1595 20.4702C57.8834 20.4702 57.6595 20.2465 57.6595 19.9705Z" fill="#1D1D1D"/>
<path d="M15.3624 18.5842C11.936 15.7718 8.06475 18.9632 8.90522 21.4828L13.276 21.4828C13.5629 22.3432 13.0478 23.0918 12.7076 23.4983C12.6096 23.6153 12.546 23.7601 12.5484 23.9126C12.5749 25.583 13.9118 25.7055 14.9974 25.5031C15.1301 25.4784 15.2503 25.4094 15.337 25.3061C16.6262 23.7694 17.6025 20.4228 15.3624 18.5842Z" fill="white"/>
<path fill-rule="evenodd" clip-rule="evenodd" d="M13.276 21.4828C13.5629 22.3432 13.0478 23.0918 12.7076 23.4983C12.6096 23.6153 12.546 23.7601 12.5484 23.9126C12.5749 25.583 13.9118 25.7055 14.9974 25.5031C15.1301 25.4784 15.2503 25.4094 15.337 25.3061C16.6262 23.7694 17.6025 20.4228 15.3624 18.5842C11.936 15.7718 8.06475 18.9632 8.90522 21.4828L13.276 21.4828ZM9.81944 20.4836L13.276 20.4836C13.7064 20.4836 14.0886 20.7588 14.2247 21.1668C14.6626 22.4796 13.9418 23.5577 13.5559 24.0402C13.5738 24.2313 13.6184 24.3324 13.6471 24.3803C13.6777 24.4312 13.7167 24.4675 13.7883 24.4999C13.9588 24.5771 14.2618 24.6043 14.6659 24.5455C15.1476 23.9186 15.5797 22.9482 15.6781 21.9595C15.7803 20.9319 15.5196 20.0063 14.7277 19.3563C13.3501 18.2256 11.9838 18.3392 11.0419 18.8945C10.3228 19.3185 9.92279 19.9279 9.81944 20.4836Z" fill="#1D1D1D"/>
<path fill-rule="evenodd" clip-rule="evenodd" d="M11.5992 19.9705C11.5992 19.6946 11.8231 19.4709 12.0992 19.4709C13.2328 19.4709 14.0698 20.1093 14.3451 21.0721C14.6117 22.0046 14.3254 23.136 13.4948 24.1502C13.32 24.3638 13.005 24.3952 12.7912 24.2205C12.5775 24.0458 12.546 23.731 12.7209 23.5175C13.4033 22.6841 13.5372 21.8837 13.3836 21.3466C13.2386 20.8396 12.8149 20.4702 12.0992 20.4702C11.8231 20.4702 11.5992 20.2465 11.5992 19.9705Z" fill="#1D1D1D"/>
<path d="M57.052 18.5844C53.6256 15.772 49.7543 18.9635 50.5948 21.483L54.9655 21.483C55.2525 22.3434 54.7374 23.0921 54.3972 23.4985C54.2992 23.6155 54.2356 23.7603 54.238 23.9129C54.2645 25.5833 55.6014 25.7057 56.687 25.5034C56.8197 25.4786 56.9399 25.4097 57.0266 25.3063C58.3158 23.7697 59.2921 20.423 57.052 18.5844Z" fill="white"/>
<path fill-rule="evenodd" clip-rule="evenodd" d="M54.9655 21.483C55.2525 22.3434 54.7374 23.0921 54.3972 23.4985C54.2992 23.6155 54.2356 23.7603 54.238 23.9129C54.2645 25.5833 55.6014 25.7057 56.687 25.5034C56.8197 25.4786 56.9399 25.4097 57.0266 25.3063C58.3158 23.7697 59.2921 20.423 57.052 18.5844C53.6256 15.772 49.7543 18.9635 50.5948 21.483L54.9655 21.483ZM51.509 20.4838L54.9655 20.4838C55.396 20.4838 55.7781 20.759 55.9142 21.1671C56.3521 22.4799 55.6314 23.5579 55.2454 24.0404C55.2633 24.2315 55.308 24.3327 55.3367 24.3805C55.3673 24.4315 55.4062 24.4678 55.4778 24.5002C55.6484 24.5773 55.9514 24.6045 56.3554 24.5458C56.8372 23.9189 57.2693 22.9484 57.3677 21.9598C57.4699 20.9321 57.2092 20.0065 56.4173 19.3565C55.0397 18.2258 53.6733 18.3394 52.7315 18.8948C52.0124 19.3188 51.6124 19.9282 51.509 20.4838Z" fill="#1D1D1D"/>
<path fill-rule="evenodd" clip-rule="evenodd" d="M53.2888 19.9708C53.2888 19.6949 53.5127 19.4712 53.7888 19.4712C54.9223 19.4712 55.7594 20.1095 56.0347 21.0723C56.3013 22.0049 56.0149 23.1362 55.1844 24.1505C55.0096 24.364 54.6945 24.3955 54.4808 24.2208C54.2671 24.046 54.2356 23.7313 54.4105 23.5177C55.0929 22.6843 55.2267 21.884 55.0731 21.3468C54.9282 20.8399 54.5044 20.4704 53.7888 20.4704C53.5127 20.4704 53.2888 20.2467 53.2888 19.9708Z" fill="#1D1D1D"/>
<path fill-rule="evenodd" clip-rule="evenodd" d="M71.5 32.6014H5.5V31.6014H71.5V32.6014Z" fill="#1D1D1D"/>
<path d="M200.926 102.798C196.261 98.729 174.366 94.7352 163.271 93.8954H134.693C110.655 97.4227 105.642 99.9423 97.5426 105.653C90.0416 110.942 85.8874 133.424 84.9348 144.286C90.3141 157.668 99.2881 186.279 100.767 193.669C102.247 201.06 102.922 222.392 102.698 225.639H196.754L196.978 193.669L194.874 171.833C199.133 162.931 207.65 144.891 207.65 143.95C207.65 142.774 207.987 126.649 207.65 117.915C207.314 109.181 203.815 105.317 200.926 102.798Z" fill="#5E81FF"/>
<path d="M163.271 94.4004L162.262 88.1856L138.224 85.1621L135.198 90.3692L138.224 97.7598L145.956 104.815L154.362 105.654C161.893 103.907 163.439 97.4239 163.271 94.4004Z" fill="white"/>
<path fill-rule="evenodd" clip-rule="evenodd" d="M141.081 45.6717C142.071 45.0798 146.951 42.1613 153.735 42.1613C166.825 42.1613 177.437 52.7648 177.437 65.8449C177.437 71.7466 175.277 77.144 171.704 81.2908C165.088 90.7868 152.328 94.2436 141.665 88.9165C137.911 87.041 133.277 83.4659 130.488 77.3775C127.733 71.3624 128.048 65.6611 128.947 61.8328C130.484 55.2946 134.293 51.2771 135.435 50.1039C137.162 48.3299 139.073 46.8641 141.007 45.716C141.028 45.7031 141.053 45.6883 141.081 45.6717Z" fill="white"/>
<path d="M165.122 53.9072C163.669 55.1783 161.809 56.5681 159.842 56.2007C158.32 55.9156 157.381 54.6669 156.039 54.0195C153.998 53.0375 151.296 53.5889 149.224 54.6868C147.825 55.4287 146.539 56.4197 144.958 56.7534C141.276 57.5332 137.384 54.505 134.023 56.0666C133.273 56.4138 132.627 56.9745 131.802 57.1241C130.248 57.407 129.033 56.1583 128.209 55.0473C126.141 52.2613 124.102 48.7189 126.046 45.7127C126.403 45.1625 126.887 44.6459 127.012 44.0349C127.133 43.4454 126.899 42.8658 126.75 42.2926C125.959 39.2581 127.795 35.7631 131.034 34.14C132.145 33.5834 133.401 33.2233 134.368 32.4936C135.29 31.7986 135.859 30.8383 136.522 29.9571C138.507 27.3176 141.656 25.1894 145.223 24.6332C148.793 24.0753 152.704 25.309 154.431 27.9338C155.604 29.7129 156.049 32.222 158.343 32.8399C160.763 33.4904 163.347 31.4229 165.875 31.7275C167.613 31.9363 168.879 33.2655 169.315 34.7078C169.752 36.149 169.518 37.6967 169.252 39.1959C170.815 38.5292 172.877 38.6487 173.961 39.7412C175.044 40.8325 174.622 42.8817 173.007 43.4411C175.535 43.1969 178.161 43.0411 180.502 43.7769C182.843 44.5115 184.825 46.3663 184.684 48.5284C184.592 49.9536 183.616 51.3234 183.728 52.7404C183.892 54.8198 186.289 56.2122 186.868 58.2214C187.549 60.5883 184.5 67.3047 182.461 69.1305C179.78 71.5325 175.012 73.2031 171.685 69.3583C168.088 65.2029 166.223 58.9731 165.122 53.9072Z" fill="#1D1D1D"/>
<path fill-rule="evenodd" clip-rule="evenodd" d="M172.012 69.0392C171.319 69.2576 170.568 69.6343 169.928 70.2785C169.046 71.166 168.6 72.3363 168.6 73.5995C168.6 74.4649 168.985 75.2404 169.594 75.7641C169.793 76.191 170.051 76.5924 170.363 76.9588C171.496 78.2885 173.176 78.9727 174.899 78.9727C177.569 78.9727 179.189 76.8603 179.726 75.2464C180.024 74.3511 180.47 73.1892 180.112 72.0592C179.725 70.836 178.505 69.844 177.185 69.3164C177.129 69.294 177.072 69.2721 177.014 69.2507C177.003 69.2437 176.993 69.2372 176.984 69.2311C176.802 69.1131 176.535 68.949 176.201 68.8063C175.454 68.4876 174.752 68.4362 174.14 68.4362C173.4 68.4362 172.772 68.6864 172.473 68.8162C172.316 68.8841 172.162 68.9593 172.012 69.0392Z" fill="white"/>
<path fill-rule="evenodd" clip-rule="evenodd" d="M176.95 68.8722C177.041 68.6116 177.326 68.4738 177.587 68.5645C178.356 68.8317 179.428 69.6526 180.188 70.7918C180.96 71.9492 181.452 73.5032 180.927 75.2287C180.308 77.2596 179.305 78.4471 177.963 79.0458C176.657 79.6284 175.112 79.6126 173.504 79.4434C173.229 79.4145 173.03 79.1687 173.059 78.8943C173.088 78.6198 173.334 78.4208 173.608 78.4497C175.194 78.6164 176.507 78.6007 177.555 78.1334C178.566 77.6824 179.412 76.7703 179.97 74.9378C180.386 73.5727 180.01 72.3272 179.356 71.3458C178.689 70.3462 177.778 69.689 177.258 69.5082C176.997 69.4176 176.86 69.1328 176.95 68.8722Z" fill="#1D1D1D"/>
<path d="M141.922 122.955C141.922 120.244 136.038 121.276 136.038 119.26L153.017 114.221C170.903 127.659 180.53 139.528 183.107 143.784C183.107 143.784 188.53 143.624 194.401 143.56C199.519 143.505 204.977 143.523 207.482 143.784V151.678C207.482 173.313 201.43 184.32 198.405 187.12L183.107 185.272L166.801 177.042C166.801 177.042 163.473 178.36 161.957 177.042C149.013 165.788 141.922 141.768 141.922 122.955Z" fill="white"/>
<path fill-rule="evenodd" clip-rule="evenodd" d="M151.67 78.476C149.049 78.605 148.942 78.6188 147.434 78.9317C146.681 79.0879 145.816 79.5133 145.006 80.0217C144.204 80.5256 143.494 81.0866 143.06 81.4763C142.854 81.6606 142.538 81.6435 142.354 81.4381C142.169 81.2328 142.186 80.9169 142.392 80.7326C142.865 80.308 143.62 79.7121 144.474 79.1757C145.321 78.6437 146.305 78.1453 147.23 77.9534C148.812 77.6253 148.977 77.6082 151.621 77.4781C151.897 77.4645 152.132 77.6769 152.145 77.9525C152.159 78.2281 151.946 78.4625 151.67 78.476Z" fill="#1D1D1D"/>
<path fill-rule="evenodd" clip-rule="evenodd" d="M130.562 81.8564C131.924 81.0607 133.675 81.5194 134.471 82.881L132.004 84.3218C134.471 82.881 134.471 82.881 134.471 82.881L134.536 82.9926C134.577 83.0628 134.636 83.1638 134.707 83.2883C134.851 83.537 135.049 83.8811 135.265 84.2623C135.682 84.9997 136.215 85.9599 136.536 86.621C137.187 87.9619 138.296 89.9746 139.071 91.1111C139.799 92.177 140.165 92.9209 140.481 93.5792C140.492 93.6011 140.502 93.6228 140.513 93.6444C140.779 94.198 140.996 94.6516 141.459 95.3613C141.69 95.7165 141.967 96.1124 142.29 96.5741C142.309 96.5999 142.327 96.6259 142.345 96.6521C142.645 97.0801 142.979 97.5553 143.302 98.0403C143.967 99.0355 144.729 100.269 145.185 101.534C145.335 101.951 145.593 102.377 146.061 103.094C146.086 103.132 146.111 103.17 146.137 103.21C146.545 103.834 147.129 104.726 147.526 105.752C148.095 107.223 147.363 108.876 145.89 109.444C144.418 110.013 142.764 109.281 142.195 107.81C142.03 107.384 141.761 106.961 141.274 106.215L141.248 106.174C140.822 105.521 140.208 104.581 139.807 103.468C139.6 102.895 139.172 102.144 138.548 101.21C138.262 100.781 137.963 100.355 137.655 99.9155L137.61 99.8512C137.295 99.4024 136.867 99.7596 136.573 99.3096C135.907 98.2872 135.517 96.8494 135.229 96.2476C135.216 96.2218 135.204 96.1961 135.192 96.1707C134.931 95.6282 134.845 95.055 134.35 94.3293C133.359 92.8779 132.113 90.595 131.394 89.1147C131.162 88.6374 130.714 87.8245 130.289 87.0735C130.084 86.7105 129.895 86.3815 129.757 86.1432C129.689 86.0242 129.633 85.9282 129.595 85.8623L129.536 85.7627C128.74 84.4011 129.199 82.6522 130.562 81.8564Z" fill="white"/>
<path fill-rule="evenodd" clip-rule="evenodd" d="M151.382 91.0233C152.837 90.4113 154.512 91.0935 155.125 92.5469C155.547 93.5488 155.56 94.5788 155.548 95.1754C155.542 95.4808 155.524 95.7822 155.511 96.0139C155.51 96.0326 155.509 96.0508 155.507 96.0685C155.492 96.3355 155.484 96.4979 155.484 96.624C155.484 96.6824 155.484 96.7455 155.484 96.8129C155.487 97.5052 155.492 98.6501 155.243 99.7072C155.159 100.063 155.088 100.343 155.028 100.576C154.895 101.098 154.823 101.383 154.805 101.753C154.774 102.4 154.591 102.915 154.489 103.184C154.463 103.25 154.431 103.333 154.405 103.396C154.403 103.439 154.4 103.49 154.396 103.545C154.359 104.06 154.207 104.474 154.063 104.765C154.039 104.814 154.015 104.859 153.992 104.901C153.787 105.653 153.407 106.286 153.117 106.698C152.724 107.256 152.117 107.944 151.34 108.399C150.902 108.656 150.478 108.781 150.202 108.848C149.912 108.918 149.639 108.958 149.444 108.983C149.329 108.998 149.161 109.016 149.052 109.028C149.009 109.033 148.975 109.037 148.956 109.039C148.875 109.049 148.839 109.054 148.832 109.055C147.98 109.244 146.979 109.213 146.567 109.2C146.498 109.198 146.446 109.196 146.413 109.196C144.906 109.196 143.853 108.291 143.388 107.845C142.832 107.311 142.35 106.667 141.993 106.169C141.791 105.886 141.64 105.667 141.504 105.471C141.34 105.234 141.2 105.032 141.023 104.793C140.842 104.549 140.748 104.447 140.73 104.425C139.508 103.526 139.198 101.817 140.048 100.543C140.924 99.2304 142.698 98.8758 144.011 99.7506C144.751 100.243 145.313 100.986 145.616 101.394C145.814 101.66 146.075 102.035 146.301 102.36C146.433 102.549 146.553 102.722 146.643 102.847C146.845 103.13 147.008 103.342 147.137 103.497C147.196 103.497 147.249 103.498 147.301 103.497C147.404 103.496 147.475 103.493 147.526 103.488C147.571 103.485 147.591 103.481 147.592 103.48C147.866 103.419 148.13 103.386 148.29 103.367C148.353 103.36 148.421 103.352 148.479 103.346C148.539 103.042 148.636 102.787 148.73 102.586C148.754 102.382 148.799 102.13 148.885 101.853C148.947 101.655 149.014 101.484 149.058 101.374C149.073 101.338 149.09 101.294 149.103 101.262C149.106 101.254 149.109 101.247 149.112 101.241C149.187 100.31 149.429 99.3756 149.584 98.7743C149.622 98.6279 149.655 98.5012 149.679 98.3992C149.765 98.0327 149.768 97.5407 149.768 96.624C149.768 96.3057 149.787 95.9802 149.802 95.738L149.803 95.7094C149.818 95.4506 149.83 95.2531 149.834 95.0632C149.837 94.8705 149.831 94.7509 149.823 94.6806C149.823 94.6792 149.822 94.6778 149.822 94.6765C149.272 93.2438 149.956 91.6232 151.382 91.0233ZM147.421 103.789C147.421 103.79 147.405 103.779 147.373 103.75C147.404 103.772 147.421 103.787 147.421 103.789Z" fill="white"/>
<path fill-rule="evenodd" clip-rule="evenodd" d="M129.121 100.627C129.296 99.0598 130.709 97.9303 132.277 98.1045C133.222 98.2094 133.85 98.69 134.141 98.9475C134.287 99.0774 134.401 99.1994 134.45 99.2518C134.487 99.2908 134.501 99.3057 134.504 99.3096C135.132 99.935 135.859 100.463 136.826 101.158C137.28 101.484 137.698 101.79 138.102 102.086C138.733 102.548 139.331 102.986 139.987 103.442C140.47 103.778 140.856 104.15 141.147 104.455C141.331 104.648 141.547 104.891 141.708 105.071C141.77 105.141 141.824 105.202 141.864 105.246C142.212 105.63 142.337 105.709 142.349 105.716C143.81 106.304 144.52 107.963 143.934 109.425C143.348 110.89 141.685 111.602 140.22 111.016C138.943 110.506 138.098 109.599 137.627 109.079C137.488 108.926 137.375 108.799 137.28 108.694C136.96 108.338 136.859 108.225 136.723 108.13C136.026 107.646 135.31 107.122 134.627 106.622C134.233 106.334 133.851 106.055 133.49 105.795C133.464 105.777 133.438 105.758 133.412 105.739C132.54 105.113 131.493 104.362 130.53 103.415C129.579 102.864 128.992 101.788 129.121 100.627ZM130.263 103.139C130.263 103.139 130.264 103.141 130.267 103.144C130.265 103.141 130.263 103.139 130.263 103.139Z" fill="white"/>
<path fill-rule="evenodd" clip-rule="evenodd" d="M129.332 109.23C128.927 109.051 128.557 108.774 128.26 108.404C128.205 108.335 128.123 108.23 128.041 108.106L128.04 108.105C128.025 108.084 127.729 107.667 127.601 107.084C127.551 106.854 127.305 105.643 128.251 104.572C129.233 103.46 130.516 103.593 130.787 103.629C131.184 103.683 131.476 103.808 131.574 103.852C131.709 103.911 131.815 103.969 131.877 104.005C132.183 104.182 132.518 104.454 132.649 104.562C132.657 104.568 132.664 104.573 132.67 104.578C132.8 104.684 132.953 104.811 133.083 104.919C133.142 104.968 133.197 105.014 133.242 105.051C133.308 105.105 133.358 105.146 133.395 105.176C134.08 105.616 134.482 106.121 134.721 106.441C134.793 106.538 134.828 106.587 134.853 106.621C134.88 106.658 134.893 106.677 134.926 106.718C134.928 106.721 134.93 106.723 134.932 106.725C134.95 106.737 134.978 106.756 135.018 106.78C135.117 106.841 135.209 106.893 135.341 106.968C135.402 107.002 135.47 107.041 135.552 107.088C135.77 107.213 136.076 107.391 136.378 107.605C136.629 107.783 136.954 108.038 137.263 108.382C138.446 108.88 139.184 110.136 138.974 111.46C138.728 113.018 137.264 114.081 135.705 113.834C135.058 113.732 134.433 113.495 133.865 113.062C133.487 112.773 133.201 112.439 133.043 112.244C132.979 112.2 132.879 112.14 132.713 112.044C132.68 112.026 132.64 112.003 132.596 111.978C132.437 111.888 132.219 111.765 132.029 111.648C131.779 111.495 131.422 111.262 131.081 110.95C130.621 110.528 130.286 110.061 130.169 109.896C130.167 109.894 130.165 109.891 130.163 109.889C130.03 109.798 129.924 109.714 129.887 109.685C129.884 109.683 129.882 109.681 129.88 109.679C129.79 109.608 129.692 109.528 129.603 109.454C129.529 109.393 129.46 109.336 129.393 109.281C129.373 109.264 129.352 109.247 129.332 109.23ZM133.099 112.284C133.099 112.284 133.097 112.282 133.092 112.278C133.097 112.282 133.099 112.284 133.099 112.284ZM133.457 105.224C133.457 105.224 133.451 105.22 133.437 105.209C133.449 105.218 133.457 105.224 133.457 105.224Z" fill="white"/>
<path fill-rule="evenodd" clip-rule="evenodd" d="M125.885 111.115C126.08 109.55 127.509 108.44 129.075 108.635C130.246 108.782 130.965 109.487 131.282 109.856C131.532 110.148 131.729 110.466 131.835 110.646C131.921 110.705 131.992 110.758 132.043 110.799C132.205 110.926 132.343 111.056 132.428 111.137C132.52 111.226 132.605 111.311 132.658 111.365C132.681 111.389 132.697 111.404 132.707 111.415C132.724 111.426 132.766 111.455 132.858 111.512C132.874 111.521 132.893 111.533 132.915 111.546C133.085 111.649 133.434 111.86 133.771 112.128C134.171 112.447 134.623 112.736 135.213 113.104C135.252 113.128 135.291 113.152 135.331 113.177C135.861 113.508 136.516 113.915 137.142 114.391C137.576 114.72 138.446 114.956 139.66 114.956C141.238 114.956 142.518 116.235 142.518 117.812C142.518 119.389 141.238 120.667 139.66 120.667C138.041 120.667 135.622 120.41 133.684 118.938C133.274 118.627 132.829 118.349 132.241 117.982L132.186 117.948C131.612 117.59 130.901 117.145 130.213 116.598C130.174 116.567 130.15 116.552 129.935 116.42C129.913 116.407 129.889 116.392 129.864 116.376C129.622 116.228 129.208 115.969 128.784 115.569C128.733 115.522 128.688 115.476 128.663 115.451C128.65 115.438 128.636 115.424 128.623 115.41C128.074 115.108 127.717 114.715 127.528 114.481C127.326 114.233 127.157 113.963 127.053 113.789C126.232 113.198 125.75 112.189 125.885 111.115Z" fill="white"/>
<path fill-rule="evenodd" clip-rule="evenodd" d="M138.348 98.287C138.998 98.287 139.524 98.8134 139.524 99.4628V100.596C139.524 101.135 139.355 101.528 139.139 101.841C139.073 101.937 138.992 102.038 138.947 102.095C138.938 102.107 138.93 102.117 138.924 102.124C138.875 102.186 138.849 102.222 138.83 102.256C138.443 102.913 137.83 103.159 137.36 103.248C137.005 103.316 136.613 103.31 136.398 103.308C136.362 103.307 136.331 103.307 136.306 103.307C135.89 103.307 135.555 103.161 135.42 103.102C135.413 103.099 135.406 103.096 135.399 103.093C135.373 103.081 135.352 103.073 135.336 103.067C134.736 103.013 134.265 102.509 134.265 101.895C134.265 101.246 134.792 100.72 135.442 100.72C135.848 100.72 136.186 100.87 136.307 100.923C136.316 100.927 136.324 100.931 136.331 100.933C136.353 100.943 136.37 100.95 136.383 100.955C136.41 100.956 136.437 100.956 136.462 100.956C136.482 100.956 136.5 100.956 136.517 100.957C136.583 100.957 136.64 100.957 136.694 100.956C136.773 100.954 136.832 100.95 136.875 100.945C136.948 100.833 137.019 100.741 137.074 100.671C137.105 100.631 137.127 100.604 137.144 100.583C137.155 100.568 137.164 100.557 137.171 100.548V99.4628C137.171 98.8134 137.698 98.287 138.348 98.287Z" fill="white"/>
<path fill-rule="evenodd" clip-rule="evenodd" d="M136.896 99.218C136.896 99.2193 136.896 99.219 136.896 99.2173L136.896 99.218ZM138.746 99.0495L137.222 99.0495C137.226 99.0652 137.23 99.0805 137.235 99.0957C137.239 99.1068 137.242 99.1178 137.246 99.1287C137.254 99.1487 137.266 99.1798 137.286 99.218C137.304 99.2539 137.328 99.296 137.361 99.3412C137.434 99.3782 137.546 99.4239 137.688 99.4464C137.918 99.4826 138.261 99.4587 138.571 99.218C138.572 99.2173 138.573 99.2166 138.574 99.2159C138.642 99.1628 138.698 99.1064 138.746 99.0495ZM137.423 100.292C137.398 100.276 137.375 100.261 137.355 100.246C137.183 100.118 137.089 99.9748 137.059 99.9277C137.018 99.8631 136.855 99.9603 136.84 99.9277C136.769 99.7724 136.859 99.4203 136.842 99.35C136.841 99.3457 136.841 99.3419 136.84 99.3385C136.815 99.2321 136.789 99.1123 136.769 99.0186C136.768 99.0134 136.767 99.0082 136.766 99.0032C136.75 98.9302 136.741 98.8877 136.736 98.8665C136.733 98.8522 136.732 98.8476 136.732 98.8499C136.702 98.7425 136.666 98.5915 136.657 98.4271C136.653 98.3459 136.651 98.2065 136.69 98.0438C136.727 97.8868 136.83 97.5934 137.123 97.364C137.446 97.1115 137.807 97.0844 138.055 97.1235C138.206 97.1473 138.329 97.1958 138.417 97.2394C139.047 97.2615 139.551 97.7792 139.551 98.4145V99.0494L139.528 99.0495C139.541 99.0976 139.554 99.1464 139.567 99.1963C139.573 99.2198 139.58 99.2436 139.586 99.2677C139.636 99.4539 139.691 99.656 139.74 99.8591C139.851 100.32 139.954 100.851 139.954 101.428C139.954 101.686 140.028 101.966 140.185 102.223C140.24 102.314 140.287 102.404 140.319 102.464C140.322 102.471 140.326 102.478 140.329 102.484C140.359 102.542 140.377 102.577 140.397 102.61C140.402 102.62 140.407 102.628 140.411 102.635C140.884 103.033 141.081 103.546 141.179 103.914C141.23 104.107 141.262 104.292 141.285 104.436C141.294 104.492 141.301 104.539 141.307 104.58C141.32 104.661 141.329 104.719 141.341 104.781C141.463 105.419 141.046 106.035 140.407 106.158C139.769 106.281 139.152 105.863 139.03 105.225C139.009 105.117 138.989 104.99 138.974 104.891C138.969 104.859 138.965 104.83 138.961 104.806C138.941 104.682 138.924 104.592 138.904 104.517C138.889 104.461 138.876 104.429 138.869 104.412C138.604 104.192 138.444 103.935 138.352 103.775C138.309 103.7 138.27 103.624 138.243 103.572C138.239 103.565 138.236 103.559 138.233 103.553C138.2 103.491 138.185 103.463 138.174 103.444C137.8 102.83 137.6 102.13 137.6 101.428C137.6 101.122 137.546 100.799 137.452 100.412C137.443 100.372 137.433 100.332 137.423 100.292Z" fill="white"/>
<path fill-rule="evenodd" clip-rule="evenodd" d="M153.43 96.5437C153.916 96.1123 154.66 96.156 155.091 96.6413C155.568 97.1771 155.49 97.8102 155.456 98.0306C155.439 98.1346 155.414 98.2477 155.401 98.3065C155.399 98.3174 155.397 98.3265 155.395 98.3333C155.391 98.3526 155.389 98.3661 155.387 98.3746C155.382 98.5251 155.384 98.6604 155.386 98.8188C155.387 98.9181 155.389 99.0265 155.389 99.1533V101.137C155.389 101.867 155.326 102.584 155.268 103.244L155.266 103.267C155.207 103.95 155.153 104.573 155.153 105.191C155.153 105.958 155.075 106.712 154.981 107.413C154.964 107.546 154.935 107.66 154.911 107.745C154.895 107.804 154.873 107.872 154.86 107.914C154.857 107.925 154.854 107.934 154.852 107.941C154.846 107.961 154.842 107.975 154.839 107.986C154.839 107.989 154.839 107.991 154.839 107.994C154.839 108.31 154.84 108.717 154.758 109.156C154.723 109.343 154.696 109.608 154.679 109.847C154.661 110.084 154.607 110.321 154.576 110.457C154.573 110.474 154.569 110.488 154.566 110.501C154.549 110.58 154.538 110.632 154.531 110.675C154.525 110.716 154.525 110.731 154.525 110.728C154.525 111.16 154.436 111.569 154.367 111.87C154.35 111.94 154.335 112.005 154.321 112.065C154.266 112.299 154.227 112.464 154.206 112.631C154.104 113.444 154.005 115.411 153.384 116.068C153.112 116.356 152.544 115.549 152.311 115.74L152.277 115.767C152.044 115.958 151.869 116.101 151.711 116.259C150.873 117.097 149.889 117.693 148.947 118.184C148.513 118.41 148.072 118.622 147.653 118.823C147.617 118.84 147.582 118.858 147.546 118.875C147.088 119.095 146.658 119.303 146.249 119.524C145.653 119.844 145.026 120.156 144.177 120.329C144.061 120.353 143.948 120.389 143.77 120.448C143.71 120.467 143.642 120.489 143.565 120.514C143.313 120.594 142.93 120.712 142.52 120.727C142.431 120.73 142.328 120.756 142.043 120.842C142.035 120.845 142.026 120.847 142.018 120.85C141.781 120.921 141.382 121.042 140.935 121.042C140.883 121.042 140.823 121.042 140.758 121.043C140.503 121.046 140.165 121.049 139.85 121.02C139.429 120.982 138.919 120.881 138.428 120.584C137.772 120.188 137.268 119.59 136.901 119.016C136.527 118.433 136.246 117.798 136.066 117.238L136.064 117.23C135.935 116.828 135.757 116.273 135.757 115.628C135.757 114.979 136.284 114.453 136.934 114.453C137.584 114.453 138.111 114.979 138.111 115.628C138.111 115.865 138.172 116.099 138.308 116.521C138.432 116.908 138.63 117.354 138.883 117.749C139.142 118.153 139.411 118.43 139.646 118.572C139.717 118.615 139.836 118.658 140.064 118.679C140.249 118.695 140.424 118.694 140.655 118.692C140.74 118.691 140.832 118.69 140.935 118.69C141.001 118.69 141.092 118.672 141.363 118.591C141.378 118.586 141.394 118.582 141.41 118.577C141.636 118.508 142.015 118.393 142.431 118.377C142.489 118.375 142.602 118.353 142.848 118.274C142.882 118.264 142.92 118.251 142.963 118.237C143.16 118.172 143.443 118.079 143.705 118.025C144.211 117.922 144.594 117.743 145.133 117.453C145.595 117.204 146.07 116.974 146.526 116.756C146.56 116.739 146.594 116.723 146.628 116.707C147.053 116.502 147.461 116.306 147.858 116.099C148.718 115.651 149.457 115.185 150.046 114.596C150.291 114.352 150.553 114.138 150.765 113.965C150.783 113.95 150.801 113.935 150.819 113.921C151.056 113.727 151.236 113.574 151.393 113.409C151.626 113.162 151.822 112.725 151.871 112.339C151.909 112.034 151.985 111.715 152.042 111.474C152.053 111.426 152.064 111.381 152.074 111.34C152.141 111.049 152.171 110.868 152.171 110.728C152.171 110.429 152.233 110.152 152.268 109.996L152.269 109.99C152.314 109.79 152.328 109.726 152.332 109.673C152.351 109.415 152.385 109.045 152.444 108.726C152.484 108.511 152.485 108.305 152.485 107.938C152.485 107.632 152.565 107.374 152.601 107.255L152.602 107.252C152.642 107.121 152.649 107.099 152.649 107.099C152.649 107.099 152.649 107.101 152.648 107.102C152.737 106.443 152.8 105.806 152.8 105.191C152.8 104.462 152.862 103.745 152.92 103.085L152.922 103.062C152.982 102.379 153.035 101.755 153.035 101.137V99.1533C153.035 99.0871 153.034 99.0089 153.033 98.9236C153.031 98.7206 153.028 98.4774 153.036 98.2612C153.039 98.1634 153.051 98.077 153.061 98.011C153.072 97.9448 153.085 97.8841 153.094 97.8393C153.097 97.8296 153.099 97.8197 153.101 97.8103C152.948 97.3739 153.063 96.8698 153.43 96.5437Z" fill="white"/>
<path fill-rule="evenodd" clip-rule="evenodd" d="M141.16 103.902C142.667 103.395 143.973 103.374 144.552 103.374C149.287 103.374 153.125 107.209 153.125 111.94C153.125 115.662 150.75 118.829 147.432 120.011C146.925 120.317 146.318 120.617 145.614 120.852C141.122 122.348 136.267 119.922 134.769 115.434C133.584 111.881 134.858 108.101 137.669 105.937C137.713 105.898 137.758 105.859 137.806 105.819C138.454 105.271 139.566 104.438 141.16 103.902ZM144.623 120.506C144.599 120.506 144.576 120.507 144.552 120.507C144.553 120.507 144.554 120.507 144.556 120.507C144.566 120.507 144.588 120.507 144.623 120.506Z" fill="white"/>
<path fill-rule="evenodd" clip-rule="evenodd" d="M149.319 107.269C149.446 106.256 150.37 105.538 151.383 105.664C152.545 105.809 152.913 106.795 152.984 107.031C153.075 107.335 153.077 107.605 153.077 107.701C153.077 107.829 153.068 107.944 153.064 107.996C153.063 108.015 153.062 108.029 153.061 108.038C153.025 109.027 152.211 109.817 151.213 109.817C150.192 109.817 149.364 108.99 149.364 107.969C149.364 107.967 149.364 107.965 149.364 107.963C149.306 107.743 149.289 107.508 149.319 107.269Z" fill="white"/>
<path fill-rule="evenodd" clip-rule="evenodd" d="M125.661 111.99C125.872 111.813 126.188 111.84 126.366 112.051C130.754 117.264 134.62 119.054 137.37 119.885C138.063 120.095 138.689 120.245 139.247 120.374C139.311 120.389 139.375 120.404 139.437 120.418C139.913 120.528 140.351 120.629 140.718 120.743C141.128 120.872 141.522 121.037 141.813 121.308C142.13 121.605 142.285 121.988 142.285 122.451C142.285 131.811 143.707 142.173 146.736 151.588C149.768 161.008 154.394 169.439 160.772 174.984C161.075 175.247 161.584 175.492 162.233 175.705C162.87 175.915 163.593 176.079 164.281 176.204C164.967 176.329 165.608 176.414 166.078 176.468C166.313 176.494 166.504 176.513 166.636 176.525C166.702 176.531 166.753 176.536 166.788 176.539L166.827 176.542L166.836 176.543L166.838 176.543L166.801 177.041C166.764 177.539 166.764 177.539 166.764 177.539L166.759 177.539L166.748 177.538L166.705 177.535C166.693 177.534 166.679 177.532 166.663 177.531C166.631 177.528 166.591 177.525 166.544 177.52C166.406 177.508 166.207 177.488 165.964 177.46C165.479 177.405 164.815 177.317 164.101 177.187C163.389 177.057 162.618 176.883 161.921 176.654C161.236 176.429 160.572 176.134 160.116 175.738C153.55 170.03 148.847 161.411 145.784 151.894C142.72 142.37 141.285 131.904 141.285 122.451C141.285 122.236 141.224 122.127 141.13 122.038C141.009 121.925 140.794 121.814 140.419 121.697C140.091 121.595 139.695 121.503 139.21 121.391C139.149 121.377 139.086 121.362 139.021 121.347C138.458 121.217 137.806 121.061 137.08 120.841C134.156 119.957 130.121 118.064 125.6 112.694C125.423 112.483 125.45 112.168 125.661 111.99ZM198.229 186.595C199.658 185.178 201.795 181.856 203.603 176.307C205.476 170.556 206.982 162.449 206.982 151.678V131.521C206.982 131.245 207.206 131.022 207.482 131.022C207.758 131.022 207.982 131.245 207.982 131.521V151.678C207.982 162.541 206.463 170.754 204.554 176.616C202.649 182.462 200.345 186.004 198.744 187.486C198.637 187.585 198.49 187.633 198.345 187.615L183.047 185.768C182.99 185.761 182.934 185.744 182.882 185.717L166.663 177.531M198.229 186.595L183.254 184.786ZM153.481 114.77C153.642 114.545 153.955 114.493 154.179 114.654C162.778 120.803 170.88 127.969 177.047 135.229C183.204 142.477 187.482 149.874 188.341 156.484C188.376 156.758 188.183 157.009 187.909 157.044C187.636 157.08 187.385 156.887 187.349 156.613C186.527 150.29 182.4 143.074 176.285 135.876C170.181 128.691 162.145 121.579 153.597 115.467C153.373 115.306 153.321 114.994 153.481 114.77Z" fill="#1D1D1D"/>
<path d="M84.9347 144.119H120.404C118.219 164.779 131.836 163.603 153.017 169.986C169.961 175.092 178.904 179.616 181.258 181.24L183.275 185.607C183.275 185.607 184.772 195.137 180.754 198.037C174.702 202.404 117.547 210.803 95.0209 191.99C82.9054 181.872 82.9735 156.213 84.9347 144.119Z" fill="white"/>
<path fill-rule="evenodd" clip-rule="evenodd" d="M176.808 178.7C176.045 178.257 175.052 178.413 174.465 179.111C173.808 179.893 173.91 181.058 174.692 181.714C175 181.972 175.316 182.091 175.435 182.135C175.488 182.154 175.552 182.176 175.573 182.183C175.576 182.184 175.578 182.185 175.579 182.185C175.629 182.207 175.683 182.231 175.741 182.256C176.086 182.406 176.558 182.613 177.037 182.757C177.437 182.877 177.846 182.981 178.209 183.074C178.269 183.089 178.328 183.104 178.386 183.119C178.81 183.228 179.177 183.326 179.52 183.442C179.913 183.575 180.44 183.74 181.083 183.772C181.551 183.795 182.016 183.786 182.407 183.78C182.427 183.779 182.447 183.779 182.466 183.779C182.966 183.77 183.452 183.698 183.805 183.646C183.835 183.641 183.864 183.637 183.892 183.633C184.902 183.485 185.601 182.546 185.452 181.536C185.304 180.527 184.365 179.828 183.354 179.977L183.343 179.978C182.919 180.041 182.654 180.079 182.401 180.084L182.391 180.084C181.962 180.091 182.399 179.507 182.057 179.49C181.943 179.484 181.069 179.325 180.754 179.218C180.267 179.054 179.735 179.65 179.305 179.54C179.305 179.111 179.174 179.506 179.111 179.49C178.744 179.396 179.623 178.995 179.305 178.899C179.056 178.825 177.626 179.044 177.292 178.899C177.206 178.862 177.113 178.822 177.012 178.778C176.96 178.756 176.913 178.738 176.876 178.724C176.851 178.715 176.828 178.707 176.808 178.7Z" fill="white"/>
<path fill-rule="evenodd" clip-rule="evenodd" d="M183.157 183.462C184.178 183.462 185.006 184.29 185.006 185.31C185.006 185.627 185.109 185.978 185.311 186.658C185.324 186.703 185.349 186.764 185.447 186.982C185.45 186.988 185.453 186.994 185.456 187.001C185.533 187.17 185.675 187.485 185.762 187.836C186.01 188.826 185.408 189.829 184.417 190.076C183.426 190.324 182.422 189.722 182.175 188.732C182.175 188.732 182.175 188.732 182.174 188.732C182.172 188.726 182.156 188.678 182.075 188.499C182.07 188.487 182.064 188.473 182.057 188.459C181.985 188.3 181.856 188.014 181.765 187.707C181.751 187.663 181.737 187.615 181.722 187.564C181.565 187.047 181.308 186.195 181.308 185.31C181.308 184.29 182.135 183.462 183.157 183.462Z" fill="white"/>
<path fill-rule="evenodd" clip-rule="evenodd" d="M197.389 182.608C196.861 182.623 196.302 182.639 195.685 182.639C193.327 182.639 190.958 182.668 188.571 182.697L188.564 182.697C186.179 182.726 183.776 182.756 181.372 182.756C180.351 182.756 179.523 181.928 179.523 180.908C179.523 179.888 180.351 179.06 181.372 179.06C183.75 179.06 186.13 179.031 188.519 179.002L188.537 179.002C190.916 178.973 193.304 178.944 195.685 178.944C196.077 178.944 196.52 178.932 196.991 178.919C198.086 178.889 199.336 178.855 200.468 178.958C201.315 179.035 202.198 179.22 203.085 179.663C203.606 179.924 203.994 180.276 204.213 180.474L204.217 180.478C204.488 180.724 204.549 180.777 204.61 180.813C205.343 181.253 205.794 181.854 206.074 182.25C206.172 182.388 206.248 182.499 206.312 182.591C206.468 182.818 206.544 182.927 206.658 183.041C207.44 183.822 207.757 184.507 208.05 185.137C208.085 185.213 208.12 185.289 208.156 185.364C208.826 186.778 208.072 188.094 207.359 188.659C207.127 188.844 206.59 189.187 205.908 189.182C205.686 189.181 205.448 189.142 205.201 189.05C205.16 189.034 205.119 189.017 205.077 188.999C205.044 188.984 205.011 188.969 204.98 188.953C203.784 189.382 202.897 188.595 202.731 188.446C202.644 188.368 202.565 188.288 202.501 188.219C202.456 188.171 202.418 188.129 202.389 188.096C202.36 188.063 202.338 188.038 202.32 188.018C201.685 187.678 201.281 186.982 201.35 186.22C201.437 185.27 202.228 184.554 203.162 184.54C203.158 184.534 203.154 184.527 203.149 184.521C203.112 184.466 203.08 184.419 203.054 184.382C202.835 184.073 202.749 184.007 202.707 183.982C202.305 183.741 201.969 183.432 201.785 183.263C201.764 183.245 201.746 183.228 201.73 183.213C201.51 183.013 201.453 182.979 201.431 182.969C201.072 182.789 200.669 182.687 200.133 182.638C199.215 182.555 198.355 182.58 197.389 182.608ZM203.948 186.621C203.927 186.697 203.913 186.766 203.903 186.826C203.903 186.827 203.903 186.828 203.903 186.829L204.675 186.651C204.67 186.641 204.665 186.631 204.66 186.621H203.948ZM204.719 186.621H204.76L204.717 186.605C204.7 186.445 204.723 186.3 204.758 186.191C204.809 186.035 204.902 185.89 205.059 185.765C205.073 185.754 205.116 185.721 205.184 185.681C205.195 185.69 205.202 185.696 205.204 185.698L205.205 185.699C205.209 185.703 205.212 185.705 205.212 185.705C205.212 185.705 205.205 185.698 205.188 185.679C205.419 185.545 205.932 185.335 206.579 185.622C206.752 185.699 206.896 185.797 207.013 185.905C207.073 185.96 207.127 186.017 207.174 186.075L204.722 186.64C204.721 186.634 204.72 186.627 204.719 186.621ZM204.041 186.362L204.64 186.578C204.494 186.269 204.409 186.098 204.3 185.947C204.185 186.086 204.101 186.228 204.041 186.362ZM202.207 187.893C202.207 187.893 202.208 187.894 202.211 187.897C202.208 187.894 202.207 187.893 202.207 187.893Z" fill="white"/>
<path fill-rule="evenodd" clip-rule="evenodd" d="M198.112 191.964C198.155 191.973 198.239 191.991 198.382 192.016C198.405 192.02 198.429 192.024 198.455 192.028C198.475 192.032 198.498 192.035 198.523 192.039L198.524 192.04C198.792 192.083 199.312 192.167 199.883 192.398C200.127 192.497 200.381 192.623 200.629 192.785C200.642 192.791 200.688 192.813 200.776 192.843C200.92 192.893 201.11 192.946 201.334 192.993C201.802 193.093 202.235 193.133 202.436 193.133C202.458 193.133 202.481 193.133 202.503 193.134C202.729 193.14 202.947 193.175 203.154 193.237C203.159 193.238 203.164 193.239 203.169 193.241C204.204 193.555 204.957 194.516 204.957 195.652C204.957 197.044 203.828 198.172 202.436 198.172C201.809 198.172 201.017 198.078 200.285 197.922C199.648 197.787 198.722 197.538 197.961 197.062C197.914 197.052 197.811 197.03 197.623 196.998C197.602 196.995 197.577 196.991 197.549 196.987C197.174 196.927 196.259 196.781 195.436 196.233C194.277 195.461 193.964 193.897 194.737 192.739C195.483 191.621 196.968 191.291 198.112 191.964Z" fill="white"/>
<path fill-rule="evenodd" clip-rule="evenodd" d="M181.587 182.108C181.645 182.028 181.697 181.942 181.742 181.851C182.199 180.938 181.829 179.828 180.915 179.372C180.766 179.297 180.623 179.236 180.526 179.195C180.518 179.192 180.51 179.189 180.502 179.185C180.406 179.145 180.349 179.12 180.292 179.094C180.291 179.093 180.289 179.092 180.288 179.091C180.216 179.058 179.939 178.927 179.576 178.899C179.382 178.884 178.944 178.88 178.482 179.15C177.934 179.471 177.664 179.99 177.587 180.443C177.522 180.82 177.59 181.121 177.624 181.249C177.664 181.4 177.715 181.516 177.747 181.583C177.791 181.678 177.838 181.759 177.873 181.815C177.886 181.968 177.889 182.187 177.889 182.54C177.889 183.237 178.082 183.807 178.232 184.192C178.309 184.39 178.363 184.52 178.405 184.62C178.465 184.763 178.499 184.845 178.537 184.978C178.578 185.119 178.616 185.27 178.662 185.458L178.666 185.473C178.71 185.647 178.761 185.854 178.821 186.064C178.942 186.491 179.122 187.029 179.441 187.554C180.137 188.699 180.573 190.42 180.573 191.867C180.573 192.42 180.522 192.931 180.459 193.56C180.442 193.729 180.424 193.907 180.406 194.097C180.407 194.092 180.379 194.298 180.337 194.665C180.32 194.817 180.302 194.983 180.29 195.12C180.284 195.184 180.277 195.265 180.274 195.343C180.273 195.377 180.27 195.45 180.273 195.536C180.275 195.573 180.279 195.668 180.299 195.785C180.308 195.842 180.33 195.952 180.376 196.085C180.409 196.18 180.522 196.494 180.816 196.788C181.246 197.218 181.76 197.333 181.899 197.364L181.899 197.364C182.119 197.413 182.326 197.431 182.466 197.439C182.682 197.451 182.943 197.448 183.033 197.447C183.048 197.451 183.078 197.461 183.125 197.48C183.19 197.506 183.266 197.541 183.378 197.594C183.394 197.602 183.413 197.611 183.433 197.621C183.527 197.666 183.651 197.725 183.771 197.779C184.106 197.927 184.433 197.996 184.647 198.034C184.796 198.06 184.981 198.085 185.109 198.103C185.152 198.109 185.188 198.114 185.215 198.118C185.289 198.129 185.342 198.138 185.38 198.145C185.78 198.419 186.216 198.552 186.401 198.608C186.578 198.661 186.773 198.71 186.917 198.745C186.974 198.787 187.072 198.859 187.17 198.923C187.305 199.011 187.505 199.129 187.757 199.222C188.077 199.341 188.389 199.494 188.798 199.699C188.814 199.707 188.83 199.716 188.847 199.724C189.223 199.912 189.688 200.146 190.201 200.342C190.372 200.407 190.548 200.509 190.898 200.715L190.919 200.727C191.218 200.904 191.674 201.173 192.202 201.358C192.486 201.457 192.761 201.526 192.963 201.576C192.99 201.583 193.016 201.589 193.041 201.595C193.223 201.64 193.341 201.669 193.456 201.704C194.423 202.001 195.382 201.997 196.058 201.994C196.124 201.993 196.188 201.993 196.249 201.993C197.024 201.993 197.926 201.836 198.629 201.714C198.656 201.71 198.684 201.705 198.711 201.7C199.533 201.558 200.121 201.462 200.533 201.462C201.554 201.462 202.382 200.635 202.382 199.614C202.382 198.594 201.554 197.767 200.533 197.767C199.766 197.767 198.868 197.922 198.168 198.044C198.138 198.049 198.108 198.054 198.079 198.059C197.259 198.201 196.667 198.298 196.249 198.298L196.201 198.298C195.368 198.298 194.952 198.298 194.543 198.172C194.318 198.103 194.087 198.046 193.916 198.005C193.892 197.999 193.869 197.993 193.848 197.988C193.649 197.939 193.525 197.906 193.424 197.87C193.278 197.819 193.111 197.729 192.778 197.533C192.759 197.522 192.74 197.51 192.719 197.498C192.435 197.33 192.006 197.076 191.523 196.891C191.189 196.763 190.871 196.604 190.456 196.396L190.447 196.392C190.084 196.21 189.641 195.987 189.148 195.797C189.137 195.79 189.127 195.782 189.115 195.773C189.103 195.765 189.09 195.755 189.073 195.742C189.002 195.69 188.865 195.59 188.702 195.495C188.532 195.396 188.295 195.279 187.998 195.205C187.951 195.193 187.901 195.181 187.856 195.17L187.85 195.169C187.802 195.157 187.757 195.146 187.711 195.135C187.618 195.112 187.538 195.091 187.47 195.07C187.449 195.064 187.43 195.058 187.415 195.052C187.087 194.818 186.754 194.693 186.507 194.619C186.22 194.534 185.941 194.489 185.751 194.462C185.655 194.448 185.584 194.438 185.524 194.43C185.434 194.417 185.371 194.409 185.292 194.395C185.266 194.39 185.247 194.386 185.234 194.384C185.233 194.383 185.232 194.383 185.232 194.382C185.101 194.321 184.705 194.133 184.515 194.056C184.404 194.011 184.279 193.964 184.14 193.921C184.203 193.294 184.271 192.588 184.271 191.867C184.271 189.844 183.698 187.439 182.603 185.636C182.536 185.526 182.464 185.355 182.379 185.055C182.337 184.907 182.298 184.752 182.251 184.564L182.249 184.555C182.205 184.38 182.153 184.171 182.093 183.963C182.02 183.707 181.933 183.48 181.861 183.301C181.82 183.2 181.792 183.131 181.767 183.072C181.737 183 181.713 182.941 181.68 182.857C181.588 182.62 181.588 182.555 181.588 182.54C181.588 182.509 181.588 182.475 181.588 182.438C181.588 182.343 181.589 182.231 181.587 182.108ZM185.454 198.162C185.459 198.163 185.458 198.163 185.452 198.161C185.453 198.161 185.454 198.161 185.454 198.162Z" fill="white"/>
<path d="M200.018 187.511C199.815 187.438 199.399 187.287 198.909 187.287C198.213 187.287 197.607 187.789 197.291 188.531C197.479 188.343 197.699 188.182 197.949 188.057C198.711 187.677 199.572 187.717 200.27 188.09L202.213 193.071C202.311 193.094 202.408 193.115 202.503 193.134C202.729 193.14 202.947 193.175 203.154 193.237L205.201 189.05C205.16 189.034 205.119 189.017 205.077 188.999C205.044 188.984 205.011 188.969 204.98 188.953C203.784 189.382 202.897 188.595 202.731 188.446C202.644 188.368 202.565 188.288 202.501 188.219C202.317 188.16 202.173 188.097 202.072 188.037C201.367 187.618 200.656 187.603 200.337 187.596L200.295 187.595C200.285 187.595 200.275 187.595 200.266 187.595L200.256 187.594C200.243 187.59 200.187 187.573 200.038 187.519L200.018 187.511Z" fill="white"/>
<path fill-rule="evenodd" clip-rule="evenodd" d="M202.046 182.211L179.856 181.203L180.697 185.066L182.21 193.633L182.714 195.48L194.313 199.68L199.188 200.016L202.55 194.473L202.618 194.334L202.645 194.34L202.646 194.34L202.647 194.341L202.651 194.342C202.675 194.347 202.695 194.352 202.715 194.357L202.667 194.234L203.153 193.239L203.169 193.241L203.154 193.237C202.947 193.175 202.729 193.14 202.503 193.134C202.408 193.115 202.311 193.094 202.213 193.071C201.672 192.946 201.089 192.752 200.565 192.446C200.562 192.445 200.559 192.445 200.555 192.444L200.549 192.443C200.519 192.439 200.474 192.435 200.395 192.431C200.356 192.429 200.316 192.427 200.265 192.425L200.263 192.425C200.214 192.423 200.156 192.421 200.095 192.418C200.023 192.415 199.952 192.408 199.883 192.398C199.312 192.167 198.792 192.083 198.524 192.04L198.523 192.039C198.498 192.035 198.475 192.032 198.455 192.028C198.429 192.024 198.405 192.02 198.382 192.016C197.617 191.72 197.06 190.796 197.06 189.701C197.06 189.277 197.144 188.877 197.291 188.531C197.607 187.789 198.213 187.287 198.909 187.287C199.399 187.287 199.815 187.438 200.018 187.511L200.038 187.519C200.187 187.573 200.243 187.59 200.256 187.594L200.266 187.595C200.275 187.595 200.285 187.595 200.295 187.595L200.337 187.596C200.656 187.603 201.367 187.618 202.072 188.037C202.173 188.097 202.317 188.16 202.501 188.219C202.565 188.288 202.644 188.368 202.731 188.446C202.897 188.595 203.784 189.382 204.98 188.953C205.011 188.969 205.044 188.984 205.077 188.999C205.119 189.017 205.16 189.034 205.201 189.05C205.448 189.142 205.686 189.181 205.908 189.182C205.752 188.985 205.569 188.824 205.368 188.708L206.081 187.25L207.593 186.242L207.089 184.394L202.046 182.211Z" fill="white"/>
<path d="M182.634 197.533C181.289 197.399 181.289 198.037 179.44 198.709C178.902 198.978 177.198 199.493 176.414 199.717L177.759 198.373L180.112 193.334L196.418 199.045C196.25 200.165 195.578 202.337 194.233 202.068C192.552 201.732 184.315 197.701 182.634 197.533Z" fill="white"/>
<path fill-rule="evenodd" clip-rule="evenodd" d="M85.3738 143.625C85.6471 143.664 85.8364 143.918 85.7967 144.191C85.1003 148.978 84.4892 156.806 84.9228 164.702C85.3576 172.62 86.839 180.507 90.2533 185.493C95.2283 192.759 103.333 197.077 109.835 199.243C110.097 199.33 110.239 199.613 110.151 199.875C110.064 200.137 109.781 200.278 109.519 200.191C102.909 197.989 94.5746 193.574 89.428 186.058C85.8492 180.831 84.3608 172.705 83.9243 164.756C83.4865 156.785 84.1026 148.89 84.8071 144.047C84.8468 143.774 85.1005 143.585 85.3738 143.625Z" fill="#1D1D1D"/>
<path fill-rule="evenodd" clip-rule="evenodd" d="M122.955 132.89C123.22 132.968 123.371 133.246 123.293 133.51C118.77 148.826 120.932 156.005 124.982 159.771C127.033 161.677 129.621 162.766 132.25 163.566C133.386 163.912 134.519 164.201 135.615 164.481C135.787 164.525 135.958 164.568 136.128 164.612C137.368 164.929 138.558 165.246 139.61 165.628C152.764 169.347 162.149 172.588 168.388 174.9C171.119 175.912 173.247 176.746 174.821 177.363C175.045 177.451 175.258 177.534 175.46 177.613C176.271 177.93 176.896 178.172 177.353 178.334C177.581 178.415 177.76 178.474 177.894 178.512C178.019 178.547 178.075 178.555 178.087 178.557C178.089 178.557 178.09 178.557 178.089 178.557C180.622 178.557 183.763 178.274 186.817 177.998C187.073 177.975 187.329 177.952 187.584 177.929C190.844 177.637 193.963 177.378 195.951 177.551C199.829 177.888 201.404 178.563 202.611 179.08L202.661 179.101C202.671 179.106 202.682 179.111 202.692 179.116C203.771 179.669 205.361 180.727 206.655 182.123C207.941 183.511 209.002 185.308 208.852 187.324C208.85 187.349 208.847 187.375 208.841 187.399C208.485 188.942 207.422 189.621 206.567 189.861C206.686 190.172 206.786 190.533 206.829 190.909C206.907 191.589 206.804 192.397 206.186 193.015C205.532 193.669 204.933 193.937 204.371 194.017C204.311 194.026 204.252 194.032 204.195 194.037C204.203 194.047 204.211 194.056 204.22 194.066C204.492 194.397 204.769 194.837 204.884 195.384C205.001 195.941 204.94 196.57 204.598 197.253C204.581 197.287 204.56 197.32 204.535 197.349C203.894 198.118 203.039 198.443 202.33 198.539C202.373 198.63 202.415 198.724 202.453 198.822C202.62 199.251 202.733 199.772 202.624 200.319C202.533 200.774 202.318 201.26 201.838 201.673C201.367 202.078 200.68 202.382 199.702 202.56C198.401 202.796 196.705 202.748 195.083 202.564C193.454 202.38 191.852 202.053 190.724 201.706C190.46 201.625 190.312 201.345 190.393 201.082C190.474 200.818 190.754 200.67 191.018 200.751C192.075 201.076 193.615 201.392 195.195 201.571C196.782 201.751 198.365 201.787 199.523 201.577C200.394 201.419 200.893 201.167 201.185 200.916C201.466 200.674 201.587 200.404 201.643 200.123C201.702 199.829 201.648 199.511 201.521 199.184C201.394 198.858 201.208 198.558 201.045 198.314C200.933 198.146 200.933 197.927 201.046 197.759C201.158 197.591 201.361 197.508 201.559 197.547C201.984 197.632 203.036 197.543 203.729 196.753C203.952 196.284 203.971 195.901 203.905 195.588C203.835 195.253 203.659 194.958 203.447 194.701C203.277 194.494 203.104 194.334 202.952 194.194C202.911 194.156 202.872 194.12 202.835 194.084C202.794 194.045 202.747 194 202.707 193.954L202.707 193.953C202.679 193.922 202.599 193.83 202.56 193.701C202.538 193.625 202.518 193.5 202.569 193.361C202.623 193.215 202.727 193.126 202.812 193.079C202.95 193.002 203.093 193.002 203.142 193.002C203.282 193.002 203.439 193.015 203.576 193.027C203.627 193.031 203.675 193.035 203.718 193.038C203.895 193.05 204.06 193.053 204.23 193.028C204.549 192.983 204.956 192.831 205.478 192.309C205.801 191.986 205.894 191.535 205.835 191.023C205.776 190.509 205.569 190.012 205.4 189.722C205.31 189.568 205.309 189.377 205.398 189.222C205.488 189.067 205.653 188.971 205.832 188.971C206.346 188.971 207.511 188.632 207.858 187.212C207.961 185.613 207.118 184.093 205.921 182.802C204.727 181.514 203.247 180.526 202.251 180.013L202.193 179.988C201.063 179.504 199.585 178.87 195.864 178.546C193.985 178.383 190.969 178.629 187.673 178.924C187.415 178.947 187.156 178.971 186.896 178.994C183.856 179.269 180.669 179.556 178.089 179.556C177.943 179.556 177.775 179.516 177.623 179.474C177.457 179.427 177.254 179.36 177.018 179.276C176.544 179.107 175.904 178.86 175.095 178.543C174.893 178.464 174.68 178.381 174.455 178.293C172.882 177.676 170.762 176.845 168.04 175.837C161.821 173.532 152.456 170.298 139.32 166.585C139.314 166.583 139.309 166.582 139.304 166.58C139.297 166.578 139.291 166.576 139.284 166.573C138.281 166.207 137.129 165.9 135.879 165.579C135.711 165.536 135.542 165.493 135.371 165.45C134.275 165.17 133.118 164.875 131.958 164.522C129.276 163.706 126.516 162.562 124.301 160.502C119.82 156.336 117.78 148.65 122.334 133.227C122.412 132.963 122.69 132.812 122.955 132.89ZM203.462 193.298C203.454 193.29 203.456 193.291 203.463 193.3C203.463 193.299 203.462 193.299 203.462 193.298ZM203.146 194.002C203.132 194.003 203.13 194.002 203.142 194.002C203.144 194.002 203.145 194.002 203.146 194.002Z" fill="#1D1D1D"/>
<path fill-rule="evenodd" clip-rule="evenodd" d="M132.701 81.8127C132.16 81.5913 131.704 81.7266 131.471 81.8813C131.382 81.9405 131.3 81.9915 131.222 82.0395C131.023 82.1625 130.857 82.2652 130.699 82.4354C130.515 82.6329 130.349 82.9298 130.349 83.4812C130.349 83.4812 130.349 83.4814 130.349 83.4817C130.349 83.482 130.349 83.4823 130.349 83.4828L130.349 83.4873C130.35 83.4914 130.35 83.497 130.351 83.5043C130.352 83.519 130.355 83.5385 130.359 83.5632C130.367 83.6132 130.381 83.6773 130.4 83.7566C130.439 83.9154 130.498 84.1192 130.577 84.3655C130.735 84.8573 130.966 85.4964 131.251 86.2433C131.822 87.7358 132.607 89.6382 133.46 91.6126C135.171 95.5719 137.134 99.7747 138.18 101.535C138.321 101.772 138.243 102.079 138.005 102.219C137.768 102.36 137.461 102.282 137.32 102.045C136.237 100.222 134.25 95.9618 132.542 92.0086C131.686 90.0266 130.895 88.1102 130.317 86.6001C130.029 85.8456 129.791 85.1874 129.625 84.6708C129.542 84.4129 129.476 84.1846 129.429 83.9943C129.385 83.8155 129.349 83.6322 129.349 83.4812C129.349 82.6889 129.603 82.1459 129.966 81.7555C130.226 81.4755 130.557 81.2727 130.775 81.1389C130.83 81.1048 130.879 81.0752 130.917 81.0499C131.398 80.7295 132.202 80.5288 133.08 80.8881C133.956 81.2465 134.819 82.1258 135.521 83.7912C136.176 85.3453 138.886 90.1418 141.643 94.5985C143.016 96.8202 144.391 98.9407 145.514 100.513C146.077 101.3 146.569 101.94 146.961 102.384C147.158 102.607 147.32 102.77 147.446 102.875C147.508 102.926 147.553 102.957 147.581 102.973C147.657 102.966 147.821 102.896 148.054 102.508C148.297 102.105 148.514 101.516 148.7 100.857C148.986 99.8417 149.169 98.7715 149.281 98.1209C149.315 97.9252 149.342 97.7675 149.363 97.6606C149.549 96.734 149.474 95.7118 149.381 94.6968C149.375 94.6352 149.369 94.5736 149.364 94.5119C149.323 94.0771 149.283 93.6429 149.269 93.2413C149.252 92.7843 149.267 92.3303 149.368 91.9265C149.552 91.1948 150.214 90.6395 150.881 90.3398C151.551 90.0387 152.412 89.9118 153.103 90.257L153.129 90.2702C153.621 90.5159 154.215 90.8125 154.685 91.4304C155.166 92.0621 155.476 92.9687 155.564 94.3681C155.649 95.7263 155.775 99.3104 155.67 103.357C155.564 107.393 155.228 111.935 154.372 115.187C154.301 115.453 154.028 115.613 153.761 115.543C153.494 115.472 153.334 115.199 153.404 114.932C154.229 111.801 154.565 107.357 154.67 103.331C154.775 99.3142 154.649 95.7596 154.566 94.4304C154.485 93.1422 154.207 92.4532 153.889 92.035C153.569 91.6142 153.167 91.4064 152.656 91.1508C152.338 90.9921 151.816 91.0153 151.291 91.2512C150.763 91.4886 150.417 91.857 150.339 92.1688C150.272 92.4369 150.253 92.7807 150.268 93.2056C150.281 93.5767 150.319 93.9798 150.359 94.4185C150.365 94.4801 150.371 94.5425 150.377 94.6055C150.468 95.6061 150.562 96.7675 150.344 97.8566C150.328 97.9367 150.305 98.0683 150.276 98.2391C150.167 98.874 149.966 100.05 149.662 101.127C149.47 101.812 149.224 102.504 148.911 103.024C148.619 103.508 148.142 104.044 147.445 103.966C147.303 103.95 147.18 103.895 147.088 103.842C146.991 103.787 146.896 103.717 146.805 103.642C146.624 103.49 146.424 103.286 146.212 103.046C145.785 102.563 145.27 101.891 144.7 101.093C143.559 99.495 142.171 97.3533 140.792 95.1238C138.043 90.678 135.29 85.8164 134.6 84.179C133.957 82.653 133.244 82.035 132.701 81.8127Z" fill="#1D1D1D"/>
<path fill-rule="evenodd" clip-rule="evenodd" d="M162.211 88.8671C162.483 88.8217 162.741 89.0056 162.786 89.2778L163.627 94.3169C163.672 94.589 163.488 94.8464 163.216 94.8918C162.944 94.9372 162.686 94.7533 162.641 94.4811L161.8 89.442C161.755 89.1699 161.939 88.9125 162.211 88.8671Z" fill="#1D1D1D"/>
<path fill-rule="evenodd" clip-rule="evenodd" d="M173.799 78.5097C174.04 78.6437 174.127 78.9479 173.993 79.1891C172.297 82.2402 169.195 87.2479 162.462 89.6628C162.202 89.7561 161.916 89.6211 161.823 89.3614C161.729 89.1017 161.864 88.8156 162.124 88.7224C168.504 86.4342 171.453 81.6996 173.119 78.7038C173.253 78.4626 173.558 78.3757 173.799 78.5097Z" fill="#1D1D1D"/>
<path d="M142.793 70.0718C142.793 70.9067 142.341 71.5835 141.784 71.5835C141.227 71.5835 140.776 70.9067 140.776 70.0718C140.776 69.2369 141.227 68.5601 141.784 68.5601C142.341 68.5601 142.793 69.2369 142.793 70.0718Z" fill="#1D1D1D"/>
<path d="M151.198 70.0435C151.198 70.8784 150.747 71.5552 150.19 71.5552C149.633 71.5552 149.181 70.8784 149.181 70.0435C149.181 69.2086 149.633 68.5317 150.19 68.5317C150.747 68.5317 151.198 69.2086 151.198 70.0435Z" fill="#1D1D1D"/>
<path d="M97.0678 194.936C97.0678 211.542 83.5958 225.003 66.9772 225.003C50.3587 225.003 36.8867 211.542 36.8867 194.936C36.8867 178.331 50.3587 164.87 66.9772 164.87C83.5958 164.87 97.0678 178.331 97.0678 194.936Z" fill="white"/>
<path fill-rule="evenodd" clip-rule="evenodd" d="M66.9772 165.369C50.6348 165.369 37.3867 178.607 37.3867 194.936C37.3867 211.265 50.6348 224.503 66.9772 224.503C83.3196 224.503 96.5678 211.265 96.5678 194.936C96.5678 178.607 83.3196 165.369 66.9772 165.369ZM36.3867 194.936C36.3867 178.055 50.0826 164.37 66.9772 164.37C83.8719 164.37 97.5678 178.055 97.5678 194.936C97.5678 211.817 83.8719 225.502 66.9772 225.502C50.0826 225.502 36.3867 211.817 36.3867 194.936Z" fill="#1D1D1D"/>
<path fill-rule="evenodd" clip-rule="evenodd" d="M70.6708 169.943C70.9299 169.848 71.2173 169.981 71.3128 170.239C72.1138 172.412 73.4564 177.887 73.8634 182.631C73.8869 182.906 73.683 183.148 73.4079 183.172C73.1328 183.195 72.8906 182.992 72.867 182.717C72.4671 178.055 71.1424 172.668 70.3745 170.585C70.279 170.326 70.4117 170.039 70.6708 169.943Z" fill="#1D1D1D"/>
<path fill-rule="evenodd" clip-rule="evenodd" d="M60.8827 167.029C60.9889 167.284 60.8684 167.576 60.6135 167.683C59.0567 168.331 56.8267 169.743 54.6505 171.321C52.4811 172.894 50.409 174.6 49.1716 175.809C48.9741 176.002 48.6576 175.998 48.4645 175.801C48.2715 175.604 48.275 175.288 48.4725 175.095C49.7566 173.84 51.8703 172.103 54.0631 170.512C56.2492 168.927 58.558 167.456 60.2289 166.76C60.4838 166.654 60.7765 166.775 60.8827 167.029Z" fill="#1D1D1D"/>
<path fill-rule="evenodd" clip-rule="evenodd" d="M49.5116 185.082C49.5737 184.813 49.8421 184.645 50.1112 184.707C51.9378 185.129 54.7784 185.828 57.3671 186.557C58.661 186.921 59.8974 187.295 60.915 187.646C61.914 187.991 62.7559 188.333 63.2201 188.642C63.4498 188.795 63.5119 189.105 63.3588 189.335C63.2056 189.564 62.8951 189.626 62.6654 189.473C62.3227 189.245 61.5984 188.94 60.5883 188.591C59.5966 188.248 58.3808 187.881 57.0958 187.519C54.5265 186.795 51.702 186.1 49.8863 185.681C49.6173 185.619 49.4495 185.351 49.5116 185.082Z" fill="#1D1D1D"/>
<path fill-rule="evenodd" clip-rule="evenodd" d="M42.6746 194.614C42.9456 194.561 43.2082 194.738 43.2611 195.009C43.7025 197.269 45.2909 203.084 48.083 208.132C48.2165 208.374 48.1289 208.678 47.8872 208.811C47.6455 208.945 47.3413 208.857 47.2077 208.616C44.3515 203.451 42.7347 197.531 42.2796 195.2C42.2267 194.929 42.4036 194.667 42.6746 194.614Z" fill="#1D1D1D"/>
<path fill-rule="evenodd" clip-rule="evenodd" d="M62.454 219.354C62.5124 219.085 62.7785 218.913 63.0484 218.972C65.0643 219.407 70.943 220 78.0344 219.466C78.3098 219.445 78.5498 219.651 78.5706 219.926C78.5914 220.201 78.385 220.441 78.1097 220.462C70.946 221.002 64.9677 220.409 62.8371 219.948C62.5672 219.89 62.3957 219.624 62.454 219.354Z" fill="#1D1D1D"/>
<path fill-rule="evenodd" clip-rule="evenodd" d="M67.933 199.899C68.1605 200.056 68.2182 200.367 68.0617 200.594C65.0692 204.943 60.0358 209.857 57.8969 211.769C57.6911 211.953 57.375 211.936 57.1909 211.73C57.0067 211.525 57.0243 211.209 57.2301 211.025C59.3498 209.13 64.313 204.279 67.2377 200.028C67.3941 199.801 67.7054 199.743 67.933 199.899Z" fill="#1D1D1D"/>
<path fill-rule="evenodd" clip-rule="evenodd" d="M78.6636 200.213C78.9031 200.076 79.2087 200.159 79.3462 200.398C81.0778 203.412 84.7307 209.813 85.4115 211.173C85.535 211.42 85.4349 211.72 85.1879 211.844C84.9409 211.967 84.6406 211.867 84.5171 211.62C83.853 210.293 80.2214 203.928 78.4789 200.896C78.3415 200.656 78.4241 200.351 78.6636 200.213Z" fill="#1D1D1D"/>
<path fill-rule="evenodd" clip-rule="evenodd" d="M93.0507 185.68C93.2459 185.875 93.2459 186.192 93.0507 186.387C92.9872 186.45 92.9181 186.488 92.8869 186.504C92.8464 186.525 92.8039 186.544 92.7646 186.559C92.6854 186.591 92.5887 186.624 92.4822 186.656C92.2676 186.723 91.9802 186.8 91.6423 186.886C90.9647 187.057 90.0584 187.265 89.0686 187.483C87.0877 187.919 84.7561 188.399 83.2133 188.707C82.9425 188.761 82.6791 188.586 82.6249 188.315C82.5708 188.044 82.7464 187.781 83.0172 187.727C84.5562 187.42 86.8811 186.942 88.8534 186.507C89.8402 186.29 90.7347 186.084 91.3974 185.917C91.7296 185.833 91.9972 185.76 92.1869 185.702C92.2826 185.672 92.3503 185.649 92.3935 185.632C92.3995 185.629 92.4044 185.627 92.4084 185.625C92.6036 185.487 92.8758 185.505 93.0507 185.68Z" fill="#1D1D1D"/>
<path d="M61.766 188.553C63.2453 188.285 70.1151 183.178 73.3651 180.659C73.7013 181.499 84.2919 187.713 83.6194 188.553C82.947 189.393 80.0893 200.647 79.4169 201.151C78.8789 201.554 70.8996 201.319 66.9772 201.151L61.766 188.553Z" fill="#1D1D1D"/>
<path d="M64.1195 219.795L56.891 222.987C53.6634 222.449 48.2617 218.284 45.9643 216.268C45.7962 215.092 46.8048 207.198 47.4772 207.533C48.0151 207.802 54.9858 209.997 58.4039 211.061C58.6729 212.136 62.3264 217.332 64.1195 219.795Z" fill="#1D1D1D"/>
<path d="M49.3264 174.78L42.0979 178.139C39.5427 181.902 37.6712 188.665 37.0548 191.577L42.7703 195.608C45.3479 192.64 50.5367 186.47 50.6712 185.53C50.8057 184.589 49.8307 177.971 49.3264 174.78Z" fill="#1D1D1D"/>
<path d="M84.2919 210.221L94.21 207.87C92.3609 211.733 88.0702 216.333 86.4772 217.78C84.6281 219.459 81.8824 220.915 80.4255 221.811L77.3997 219.963C77.9376 219.56 82.2186 213.301 84.2919 210.221Z" fill="#1D1D1D"/>
<path d="M59.2445 167.726L59.9169 166.046C59.9169 166.046 62.8419 164.366 69.1626 165.038C75.4833 165.71 78.3523 166.774 78.9126 167.39C75.2363 168.702 70.8436 171.253 70.8436 171.253C70.0367 170.044 62.2704 168.342 59.2445 167.726Z" fill="#1D1D1D"/>
<path d="M91.8566 186.37C91.8566 185.295 91.1842 179.763 90.848 177.132C92.1928 177.804 95.0505 184.355 95.8911 187.21C96.5635 189.495 96.8436 193.761 96.8997 195.609C96.3618 194.937 93.3135 189.17 91.8566 186.37Z" fill="#1D1D1D"/>
</svg>
